<?xml version="1.0" encoding="UTF-8"?>
<!--Generator: Apple Native CoreSVG 232.5-->
<!DOCTYPE svg
PUBLIC "-//W3C//DTD SVG 1.1//EN"
       "http://www.w3.org/Graphics/SVG/1.1/DTD/svg11.dtd">
<svg version="1.1" xmlns="http://www.w3.org/2000/svg" xmlns:xlink="http://www.w3.org/1999/xlink" width="22.1875" height="16.4355">
 <g>
  <rect height="16.4355" opacity="0" width="22.1875" x="0" y="0"/>
  <path d="M0 15.6543C0 16.084 0.361328 16.4355 0.78125 16.4355L21.0352 16.4355C21.4648 16.4355 21.8262 16.084 21.8262 15.6543C21.8262 15.2246 21.4648 14.8633 21.0352 14.8633L2.68555 14.8633L16.1426 1.40625C16.4453 1.10352 16.4453 0.595703 16.1426 0.292969C15.8398-0.00976562 15.3418-0.00976562 15.0293 0.292969L0.224609 15.0977C0.0976562 15.2344 0 15.4395 0 15.6543ZM11.3867 15.625L12.959 15.625C12.959 12.2852 11.6016 9.25781 9.41406 7.06055L8.29102 8.16406C10.2051 10.0781 11.3867 12.7148 11.3867 15.625Z" fill="currentColor" fill-opacity="1"/>
 </g>
</svg>
