<?xml version="1.0" encoding="UTF-8"?>
<!--Generator: Apple Native CoreSVG 232.5-->
<!DOCTYPE svg
PUBLIC "-//W3C//DTD SVG 1.1//EN"
       "http://www.w3.org/Graphics/SVG/1.1/DTD/svg11.dtd">
<svg version="1.1" xmlns="http://www.w3.org/2000/svg" xmlns:xlink="http://www.w3.org/1999/xlink" width="18.3398" height="17.998">
 <g>
  <rect height="17.998" opacity="0" width="18.3398" x="0" y="0"/>
  <path d="M17.9785 3.04688L17.9785 14.9707C17.9785 16.9824 16.9629 17.998 14.9121 17.998L3.06641 17.998C1.02539 17.998 0 16.9922 0 14.9707L0 3.04688C0 1.02539 1.02539 0.0195312 3.06641 0.0195312L14.9121 0.0195312C16.9629 0.0195312 17.9785 1.03516 17.9785 3.04688ZM8.41797 3.01758L5.50781 5.91797C5.37109 6.04492 5.29297 6.23047 5.29297 6.44531C5.29297 6.85547 5.61523 7.16797 6.03516 7.16797C6.25977 7.16797 6.43555 7.08984 6.58203 6.95312L7.32422 6.19141L8.33984 4.9707L8.25195 7.10938L8.25195 10.8789L8.33984 13.0176L7.32422 11.7969L6.58203 11.0352C6.43555 10.8887 6.25977 10.8203 6.03516 10.8203C5.61523 10.8203 5.29297 11.1328 5.29297 11.543C5.29297 11.748 5.37109 11.9434 5.50781 12.0703L8.41797 14.9707C8.61328 15.166 8.78906 15.2637 9.01367 15.2637C9.22852 15.2637 9.39453 15.166 9.59961 14.9707L12.5195 12.0703C12.6562 11.9434 12.7246 11.748 12.7246 11.543C12.7246 11.1328 12.4121 10.8203 11.9922 10.8203C11.7676 10.8203 11.5918 10.8984 11.4551 11.0352L10.7031 11.7969L9.6875 13.0078L9.77539 10.8789L9.77539 7.10938L9.6875 4.98047L10.7031 6.19141L11.4551 6.95312C11.5918 7.08008 11.7676 7.16797 11.9922 7.16797C12.4121 7.16797 12.7246 6.85547 12.7246 6.44531C12.7246 6.23047 12.6562 6.04492 12.5195 5.91797L9.59961 3.01758C9.39453 2.82227 9.22852 2.72461 9.01367 2.72461C8.78906 2.72461 8.61328 2.82227 8.41797 3.01758Z" fill="currentColor" fill-opacity="1"/>
 </g>
</svg>
