<?xml version="1.0" encoding="UTF-8"?>
<!--Generator: Apple Native CoreSVG 232.5-->
<!DOCTYPE svg
PUBLIC "-//W3C//DTD SVG 1.1//EN"
       "http://www.w3.org/Graphics/SVG/1.1/DTD/svg11.dtd">
<svg version="1.1" xmlns="http://www.w3.org/2000/svg" xmlns:xlink="http://www.w3.org/1999/xlink" width="18.5742" height="23.623">
 <g>
  <rect height="23.623" opacity="0" width="18.5742" x="0" y="0"/>
  <path d="M0 11.6309C0 12.1387 0.351562 12.5 0.859375 12.5L17.3633 12.5C17.8613 12.5 18.2129 12.1387 18.2129 11.6309C18.2129 11.123 17.8613 10.752 17.3633 10.752L0.859375 10.752C0.351562 10.752 0 11.123 0 11.6309Z" fill="currentColor" fill-opacity="1"/>
  <path d="M9.11133 9.74609C9.61914 9.74609 9.98047 9.39453 9.98047 8.87695L9.98047 4.75586L9.92188 2.73438L12.5098 5.49805C12.6758 5.68359 12.9004 5.74219 13.1348 5.74219C13.623 5.74219 13.9844 5.37109 13.9844 4.89258C13.9844 4.64844 13.8867 4.44336 13.6914 4.23828L9.76562 0.292969C9.58008 0.0976562 9.3457 0 9.11133 0C8.86719 0 8.64258 0.0976562 8.45703 0.292969L4.53125 4.23828C4.33594 4.44336 4.23828 4.64844 4.23828 4.89258C4.23828 5.37109 4.59961 5.74219 5.08789 5.74219C5.32227 5.74219 5.54688 5.68359 5.71289 5.49805L8.30078 2.73438L8.23242 4.75586L8.23242 8.87695C8.23242 9.39453 8.60352 9.74609 9.11133 9.74609ZM9.11133 13.5059C8.60352 13.5059 8.23242 13.8574 8.23242 14.375L8.23242 18.5059L8.30078 20.5176L5.71289 17.7539C5.54688 17.5781 5.32227 17.5098 5.08789 17.5098C4.59961 17.5098 4.23828 17.8809 4.23828 18.3594C4.23828 18.6035 4.33594 18.8184 4.53125 19.0234L8.45703 22.959C8.64258 23.1543 8.86719 23.2617 9.11133 23.2617C9.3457 23.2617 9.58008 23.1543 9.76562 22.959L13.6914 19.0234C13.8867 18.8184 13.9844 18.6035 13.9844 18.3594C13.9844 17.8809 13.623 17.5098 13.1348 17.5098C12.9004 17.5098 12.6758 17.5781 12.5098 17.7539L9.92188 20.5176L9.98047 18.5059L9.98047 14.375C9.98047 13.8574 9.61914 13.5059 9.11133 13.5059Z" fill="currentColor" fill-opacity="1"/>
 </g>
</svg>
