<?xml version="1.0" encoding="UTF-8"?>
<!--Generator: Apple Native CoreSVG 232.5-->
<!DOCTYPE svg
PUBLIC "-//W3C//DTD SVG 1.1//EN"
       "http://www.w3.org/Graphics/SVG/1.1/DTD/svg11.dtd">
<svg version="1.1" xmlns="http://www.w3.org/2000/svg" xmlns:xlink="http://www.w3.org/1999/xlink" width="19.0234" height="18.6816">
 <g>
  <rect height="18.6816" opacity="0" width="19.0234" x="0" y="0"/>
  <path d="M0 5.27344C0 6.13281 0.917969 6.34766 1.46484 5.79102L5.79102 1.46484C6.35742 0.908203 6.13281 0 5.27344 0L0.888672 0C0.341797 0 0 0.371094 0 0.898438ZM2.51953 3.75L14.8926 16.1328L16.1328 14.9121L3.75977 2.51953ZM18.6621 13.3887C18.6621 12.5195 17.7441 12.3145 17.1875 12.8613L12.8613 17.1875C12.3047 17.7539 12.5293 18.6621 13.3887 18.6621L17.7734 18.6621C18.3203 18.6621 18.6621 18.2812 18.6621 17.7637ZM18.6621 5.27344L18.6621 0.898438C18.6621 0.371094 18.3203 0 17.7734 0L13.3887 0C12.5293 0 12.3047 0.908203 12.8613 1.46484L17.1875 5.79102C17.7441 6.34766 18.6621 6.13281 18.6621 5.27344ZM3.75977 16.1328L16.1426 3.75L14.9023 2.51953L2.51953 14.9023ZM0 13.3887L0 17.7637C0 18.2812 0.341797 18.6621 0.888672 18.6621L5.27344 18.6621C6.13281 18.6621 6.35742 17.7539 5.79102 17.1875L1.46484 12.8613C0.917969 12.3145 0 12.5195 0 13.3887Z" fill="currentColor" fill-opacity="1"/>
 </g>
</svg>
