<?xml version="1.0" encoding="UTF-8"?>
<!--Generator: Apple Native CoreSVG 232.5-->
<!DOCTYPE svg
PUBLIC "-//W3C//DTD SVG 1.1//EN"
       "http://www.w3.org/Graphics/SVG/1.1/DTD/svg11.dtd">
<svg version="1.1" xmlns="http://www.w3.org/2000/svg" xmlns:xlink="http://www.w3.org/1999/xlink" width="18.5742" height="23.623">
 <g>
  <rect height="23.623" opacity="0" width="18.5742" x="0" y="0"/>
  <path d="M0 11.6309C0 12.1387 0.351562 12.5 0.859375 12.5L17.3633 12.5C17.8613 12.5 18.2129 12.1387 18.2129 11.6309C18.2129 11.123 17.8613 10.752 17.3633 10.752L0.859375 10.752C0.351562 10.752 0 11.123 0 11.6309Z" fill="currentColor" fill-opacity="1"/>
  <path d="M9.11133 0C8.60352 0 8.23242 0.351562 8.23242 0.859375L8.23242 4.99023L8.30078 7.01172L5.71289 4.23828C5.54688 4.0625 5.32227 3.99414 5.08789 3.99414C4.59961 3.99414 4.23828 4.36523 4.23828 4.84375C4.23828 5.08789 4.33594 5.30273 4.53125 5.50781L8.45703 9.44336C8.64258 9.63867 8.86719 9.74609 9.11133 9.74609C9.3457 9.74609 9.58008 9.63867 9.76562 9.44336L13.6914 5.50781C13.8867 5.30273 13.9844 5.08789 13.9844 4.84375C13.9844 4.36523 13.623 3.99414 13.1348 3.99414C12.9004 3.99414 12.6758 4.0625 12.5098 4.23828L9.92188 7.01172L9.98047 4.99023L9.98047 0.859375C9.98047 0.351562 9.61914 0 9.11133 0ZM9.11133 23.2617C9.61914 23.2617 9.98047 22.9102 9.98047 22.3926L9.98047 18.2617L9.92188 16.25L12.5098 19.0137C12.6758 19.1895 12.9004 19.2578 13.1348 19.2578C13.623 19.2578 13.9844 18.8867 13.9844 18.4082C13.9844 18.1641 13.8867 17.9492 13.6914 17.7441L9.76562 13.8086C9.58008 13.6133 9.3457 13.5059 9.11133 13.5059C8.86719 13.5059 8.64258 13.6133 8.45703 13.8086L4.53125 17.7441C4.33594 17.9492 4.23828 18.1641 4.23828 18.4082C4.23828 18.8867 4.59961 19.2578 5.08789 19.2578C5.32227 19.2578 5.54688 19.1895 5.71289 19.0137L8.30078 16.25L8.23242 18.2617L8.23242 22.3926C8.23242 22.9102 8.60352 23.2617 9.11133 23.2617Z" fill="currentColor" fill-opacity="1"/>
 </g>
</svg>
