<?xml version="1.0" encoding="UTF-8"?>
<!--Generator: Apple Native CoreSVG 232.5-->
<!DOCTYPE svg
PUBLIC "-//W3C//DTD SVG 1.1//EN"
       "http://www.w3.org/Graphics/SVG/1.1/DTD/svg11.dtd">
<svg version="1.1" xmlns="http://www.w3.org/2000/svg" xmlns:xlink="http://www.w3.org/1999/xlink" width="20.2832" height="19.9316">
 <g>
  <rect height="19.9316" opacity="0" width="20.2832" x="0" y="0"/>
  <path d="M19.9219 9.9707C19.9219 15.4199 15.4102 19.9316 9.96094 19.9316C4.52148 19.9316 0 15.4199 0 9.9707C0 4.53125 4.51172 0.00976562 9.95117 0.00976562C15.4004 0.00976562 19.9219 4.53125 19.9219 9.9707ZM9.66797 4.42383L7.73438 6.38672C7.5 6.63086 7.49023 7.08008 7.73438 7.32422L9.6875 9.26758C9.79492 9.375 9.9707 9.46289 10.127 9.46289C10.498 9.46289 10.7715 9.17969 10.7715 8.81836C10.7715 8.64258 10.6934 8.48633 10.5762 8.35938L9.60938 7.40234C9.70703 7.38281 9.83398 7.37305 9.96094 7.37305C11.6895 7.37305 13.0566 8.75 13.0566 10.4785C13.0566 12.1973 11.6895 13.584 9.96094 13.584C8.24219 13.584 6.86523 12.1973 6.86523 10.4785C6.86523 10.0977 6.55273 9.78516 6.16211 9.78516C5.79102 9.78516 5.46875 10.0977 5.46875 10.4785C5.46875 12.959 7.4707 14.9805 9.96094 14.9805C12.4512 14.9805 14.4531 12.959 14.4531 10.4395C14.4531 7.96875 12.4219 6.02539 10.1562 6.02539C10.0684 6.02539 9.96094 6.03516 9.89258 6.04492L10.5957 5.32227C10.6934 5.21484 10.7715 5.03906 10.7715 4.86328C10.7715 4.50195 10.498 4.20898 10.127 4.20898C9.95117 4.20898 9.78516 4.29688 9.66797 4.42383Z" fill="currentColor" fill-opacity="1"/>
 </g>
</svg>
