<?xml version="1.0" encoding="UTF-8"?>
<!--Generator: Apple Native CoreSVG 232.5-->
<!DOCTYPE svg
PUBLIC "-//W3C//DTD SVG 1.1//EN"
       "http://www.w3.org/Graphics/SVG/1.1/DTD/svg11.dtd">
<svg version="1.1" xmlns="http://www.w3.org/2000/svg" xmlns:xlink="http://www.w3.org/1999/xlink" width="20.2832" height="19.9316">
 <g>
  <rect height="19.9316" opacity="0" width="20.2832" x="0" y="0"/>
  <path d="M9.96094 19.9219C15.4102 19.9219 19.9219 15.4004 19.9219 9.96094C19.9219 4.51172 15.4004 0 9.95117 0C4.51172 0 0 4.51172 0 9.96094C0 15.4004 4.52148 19.9219 9.96094 19.9219ZM9.96094 18.2617C5.35156 18.2617 1.66992 14.5703 1.66992 9.96094C1.66992 5.35156 5.3418 1.66016 9.95117 1.66016C14.5605 1.66016 18.2617 5.35156 18.2617 9.96094C18.2617 14.5703 14.5703 18.2617 9.96094 18.2617Z" fill="currentColor" fill-opacity="1"/>
  <path d="M9.96094 14.8438C10.3906 14.8438 10.6934 14.541 10.6934 14.1113L10.6934 9.22852L10.6152 7.1582L11.6113 8.33984L12.7637 9.51172C12.8906 9.64844 13.0664 9.72656 13.2812 9.72656C13.6816 9.72656 13.9941 9.41406 13.9941 9.02344C13.9941 8.81836 13.916 8.64258 13.7891 8.51562L10.5371 5.26367C10.3516 5.07812 10.1758 4.99023 9.96094 4.99023C9.75586 4.99023 9.58984 5.06836 9.39453 5.26367L6.13281 8.51562C6.00586 8.64258 5.94727 8.81836 5.94727 9.02344C5.94727 9.41406 6.25 9.72656 6.65039 9.72656C6.85547 9.72656 7.03125 9.63867 7.16797 9.51172L8.33008 8.33984L9.30664 7.16797L9.22852 9.22852L9.22852 14.1113C9.22852 14.541 9.54102 14.8438 9.96094 14.8438Z" fill="currentColor" fill-opacity="1"/>
 </g>
</svg>
