<?xml version="1.0" encoding="UTF-8"?>
<!--Generator: Apple Native CoreSVG 232.5-->
<!DOCTYPE svg
PUBLIC "-//W3C//DTD SVG 1.1//EN"
       "http://www.w3.org/Graphics/SVG/1.1/DTD/svg11.dtd">
<svg version="1.1" xmlns="http://www.w3.org/2000/svg" xmlns:xlink="http://www.w3.org/1999/xlink" width="15.166" height="20.2441">
 <g>
  <rect height="20.2441" opacity="0" width="15.166" x="0" y="0"/>
  <path d="M14.8047 11.0742C14.8047 10.5957 14.4531 10.2246 13.9648 10.2246C13.7305 10.2246 13.5059 10.3027 13.3496 10.459L11.123 12.6465L7.62695 16.4844L8.17383 16.6797L8.27148 13.7695L8.27148 0.898438C8.27148 0.400391 7.91016 0.0390625 7.40234 0.0390625C6.89453 0.0390625 6.5332 0.400391 6.5332 0.898438L6.5332 13.7695L6.63086 16.6797L7.1875 16.4844L3.68164 12.6465L1.45508 10.459C1.30859 10.3027 1.07422 10.2246 0.839844 10.2246C0.351562 10.2246 0 10.5957 0 11.0742C0 11.3086 0.0878906 11.5137 0.273438 11.709L6.74805 18.2031C6.93359 18.3984 7.1582 18.4961 7.40234 18.4961C7.64648 18.4961 7.87109 18.3984 8.05664 18.2031L14.541 11.709C14.7266 11.5137 14.8047 11.3086 14.8047 11.0742ZM14.8047 19.3652C14.8047 18.8574 14.4629 18.4961 13.9648 18.4961L0.859375 18.4961C0.351562 18.4961 0 18.8574 0 19.3652C0 19.873 0.351562 20.2441 0.859375 20.2441L13.9648 20.2441C14.4629 20.2441 14.8047 19.873 14.8047 19.3652Z" fill="currentColor" fill-opacity="1"/>
 </g>
</svg>
