<?xml version="1.0" encoding="UTF-8"?>
<!--Generator: Apple Native CoreSVG 232.5-->
<!DOCTYPE svg
PUBLIC "-//W3C//DTD SVG 1.1//EN"
       "http://www.w3.org/Graphics/SVG/1.1/DTD/svg11.dtd">
<svg version="1.1" xmlns="http://www.w3.org/2000/svg" xmlns:xlink="http://www.w3.org/1999/xlink" width="21.3574" height="18.1738">
 <g>
  <rect height="18.1738" opacity="0" width="21.3574" x="0" y="0"/>
  <path d="M20.8887 6.41602C20.8887 7.37305 20.1074 8.1543 19.1504 8.1543C18.7692 8.1543 18.4158 8.03033 18.1298 7.81919L13.4913 10.5809C13.508 10.671 13.5156 10.7643 13.5156 10.8594C13.5156 11.8164 12.7441 12.5977 11.7871 12.5977C10.8301 12.5977 10.0488 11.8164 10.0488 10.8594C10.0488 10.6146 10.0999 10.3819 10.1926 10.1716L8.32877 8.57342C8.02286 8.8476 7.61898 9.01367 7.17773 9.01367C6.69154 9.01367 6.25072 8.81204 5.93529 8.48756L1.57227 11.0117L1.57227 9.6745L5.44767 7.4371C5.44199 7.38397 5.43945 7.32996 5.43945 7.27539C5.43945 6.31836 6.2207 5.54688 7.17773 5.54688C8.13477 5.54688 8.91602 6.31836 8.91602 7.27539C8.91602 7.37978 8.90672 7.48207 8.88731 7.58096L10.9477 9.34635C11.1965 9.20878 11.4829 9.13086 11.7871 9.13086C12.2238 9.13086 12.6218 9.29147 12.9244 9.55827L17.4695 6.85056C17.4314 6.71213 17.4121 6.56624 17.4121 6.41602C17.4121 5.45898 18.1934 4.67773 19.1504 4.67773C20.1074 4.67773 20.8887 5.45898 20.8887 6.41602Z" fill="currentColor" fill-opacity="1"/>
  <path d="M0 17.4023C0 17.8711 0.3125 18.1738 0.78125 18.1738L20.2051 18.1738C20.6348 18.1738 20.9961 17.832 20.9961 17.3926C20.9961 16.9629 20.6348 16.6113 20.2051 16.6113L1.8457 16.6113C1.64062 16.6113 1.57227 16.543 1.57227 16.3379L1.57227 0.898438C1.57227 0.478516 1.2207 0.117188 0.791016 0.117188C0.351562 0.117188 0 0.478516 0 0.898438Z" fill="currentColor" fill-opacity="1"/>
 </g>
</svg>
