<?xml version="1.0" encoding="UTF-8"?>
<!--Generator: Apple Native CoreSVG 232.5-->
<!DOCTYPE svg
PUBLIC "-//W3C//DTD SVG 1.1//EN"
       "http://www.w3.org/Graphics/SVG/1.1/DTD/svg11.dtd">
<svg version="1.1" xmlns="http://www.w3.org/2000/svg" xmlns:xlink="http://www.w3.org/1999/xlink" width="20.2832" height="19.9316">
 <g>
  <rect height="19.9316" opacity="0" width="20.2832" x="0" y="0"/>
  <path d="M19.9219 9.96094C19.9219 15.4004 15.4102 19.9219 9.96094 19.9219C4.52148 19.9219 0 15.4004 0 9.96094C0 4.51172 4.51172 0 9.95117 0C15.4004 0 19.9219 4.51172 19.9219 9.96094ZM9.24805 14.4824C9.24805 14.8926 9.55078 15.1953 9.96094 15.1953C10.3711 15.1953 10.6738 14.8926 10.6738 14.4824C10.6738 14.0723 10.3711 13.7695 9.96094 13.7695C9.55078 13.7695 9.24805 14.0723 9.24805 14.4824ZM11.5039 13.877C11.5039 14.2969 11.8066 14.5996 12.2168 14.5996C12.6367 14.5996 12.9297 14.2969 12.9297 13.877C12.9297 13.4668 12.6367 13.1641 12.2168 13.1641C11.8066 13.1641 11.5039 13.4668 11.5039 13.877ZM6.99219 13.877C6.99219 14.2969 7.29492 14.5996 7.70508 14.5996C8.11523 14.5996 8.41797 14.2969 8.41797 13.877C8.41797 13.4668 8.11523 13.1641 7.70508 13.1641C7.29492 13.1641 6.99219 13.4668 6.99219 13.877ZM13.1543 12.2363C13.1543 12.6465 13.457 12.9492 13.8672 12.9492C14.2871 12.9492 14.5898 12.6465 14.5898 12.2363C14.5898 11.8164 14.2871 11.5137 13.8672 11.5137C13.457 11.5137 13.1543 11.8164 13.1543 12.2363ZM5.33203 12.2363C5.33203 12.6465 5.63477 12.9492 6.05469 12.9492C6.46484 12.9492 6.76758 12.6465 6.76758 12.2363C6.76758 11.8164 6.46484 11.5137 6.05469 11.5137C5.63477 11.5137 5.33203 11.8164 5.33203 12.2363ZM13.7598 9.9707C13.7598 10.3809 14.0625 10.6836 14.4727 10.6836C14.8828 10.6836 15.1855 10.3809 15.1855 9.9707C15.1855 9.56055 14.8828 9.25781 14.4727 9.25781C14.0625 9.25781 13.7598 9.56055 13.7598 9.9707ZM4.73633 9.9707C4.73633 10.3809 5.03906 10.6836 5.44922 10.6836C5.85938 10.6836 6.16211 10.3809 6.16211 9.9707C6.16211 9.56055 5.85938 9.25781 5.44922 9.25781C5.03906 9.25781 4.73633 9.56055 4.73633 9.9707ZM13.1543 7.71484C13.1543 8.125 13.457 8.42773 13.8672 8.42773C14.2871 8.42773 14.5898 8.125 14.5898 7.71484C14.5898 7.30469 14.2871 7.00195 13.8672 7.00195C13.457 7.00195 13.1543 7.30469 13.1543 7.71484ZM5.33203 7.71484C5.33203 8.125 5.63477 8.42773 6.05469 8.42773C6.46484 8.42773 6.76758 8.125 6.76758 7.71484C6.76758 7.30469 6.46484 7.00195 6.05469 7.00195C5.63477 7.00195 5.33203 7.30469 5.33203 7.71484ZM11.5039 6.06445C11.5039 6.47461 11.8066 6.77734 12.2168 6.77734C12.6367 6.77734 12.9297 6.47461 12.9297 6.06445C12.9297 5.64453 12.6367 5.3418 12.2168 5.3418C11.8066 5.3418 11.5039 5.64453 11.5039 6.06445ZM6.99219 6.06445C6.99219 6.47461 7.29492 6.77734 7.70508 6.77734C8.11523 6.77734 8.41797 6.47461 8.41797 6.06445C8.41797 5.64453 8.11523 5.3418 7.70508 5.3418C7.29492 5.3418 6.99219 5.64453 6.99219 6.06445ZM9.24805 5.45898C9.24805 5.86914 9.55078 6.17188 9.96094 6.17188C10.3711 6.17188 10.6738 5.86914 10.6738 5.45898C10.6738 5.04883 10.3711 4.74609 9.96094 4.74609C9.55078 4.74609 9.24805 5.04883 9.24805 5.45898Z" fill="currentColor" fill-opacity="1"/>
 </g>
</svg>
