<?xml version="1.0" encoding="UTF-8"?>
<!--Generator: Apple Native CoreSVG 232.5-->
<!DOCTYPE svg
PUBLIC "-//W3C//DTD SVG 1.1//EN"
       "http://www.w3.org/Graphics/SVG/1.1/DTD/svg11.dtd">
<svg version="1.1" xmlns="http://www.w3.org/2000/svg" xmlns:xlink="http://www.w3.org/1999/xlink" width="20.2832" height="19.9316">
 <g>
  <rect height="19.9316" opacity="0" width="20.2832" x="0" y="0"/>
  <path d="M19.9219 9.96094C19.9219 15.4004 15.4102 19.9219 9.96094 19.9219C4.52148 19.9219 0 15.4004 0 9.96094C0 4.51172 4.51172 0 9.95117 0C15.4004 0 19.9219 4.51172 19.9219 9.96094ZM4.57031 9.9707C4.57031 12.9004 7.03125 15.3711 9.96094 15.3711C12.9004 15.3711 15.3613 12.9102 15.3613 9.9707C15.3613 7.04102 12.8906 4.57031 9.96094 4.57031C7.02148 4.57031 4.57031 7.03125 4.57031 9.9707ZM13.7695 9.9707C13.7695 12.0605 12.0508 13.7891 9.96094 13.7891C7.89062 13.7891 6.15234 12.0508 6.15234 9.9707C6.15234 7.88086 7.87109 6.15234 9.96094 6.15234C12.041 6.15234 13.7695 7.89062 13.7695 9.9707Z" fill="currentColor" fill-opacity="1"/>
 </g>
</svg>
