<?xml version="1.0" encoding="UTF-8"?>
<!--Generator: Apple Native CoreSVG 232.5-->
<!DOCTYPE svg
PUBLIC "-//W3C//DTD SVG 1.1//EN"
       "http://www.w3.org/Graphics/SVG/1.1/DTD/svg11.dtd">
<svg version="1.1" xmlns="http://www.w3.org/2000/svg" xmlns:xlink="http://www.w3.org/1999/xlink" width="20.7715" height="20.4199">
 <g>
  <rect height="20.4199" opacity="0" width="20.7715" x="0" y="0"/>
  <path d="M9.30664 20.4102L11.1035 20.4102C11.6113 20.4102 11.9824 20.1074 12.0898 19.6094L12.5977 17.4609C12.9785 17.334 13.3496 17.1875 13.6719 17.0312L15.5566 18.1836C15.9766 18.4473 16.4551 18.4082 16.8066 18.0566L18.0664 16.8066C18.418 16.4551 18.4668 15.9473 18.1836 15.5273L17.0312 13.6621C17.1973 13.3203 17.3438 12.9688 17.4512 12.6172L19.6191 12.0996C20.1172 11.9922 20.4102 11.6211 20.4102 11.1133L20.4102 9.3457C20.4102 8.84766 20.1172 8.47656 19.6191 8.36914L17.4707 7.85156C17.3438 7.45117 17.1875 7.08984 17.0508 6.78711L18.2031 4.89258C18.4766 4.47266 18.4473 3.99414 18.0859 3.64258L16.8066 2.38281C16.4453 2.05078 16.0156 1.99219 15.5859 2.23633L13.6719 3.41797C13.3594 3.25195 12.998 3.10547 12.5977 2.97852L12.0898 0.800781C11.9824 0.302734 11.6113 0 11.1035 0L9.30664 0C8.79883 0 8.42773 0.302734 8.31055 0.800781L7.80273 2.95898C7.42188 3.08594 7.05078 3.23242 6.71875 3.4082L4.82422 2.23633C4.39453 1.99219 3.95508 2.04102 3.59375 2.38281L2.32422 3.64258C1.96289 3.99414 1.92383 4.47266 2.20703 4.89258L3.34961 6.78711C3.22266 7.08984 3.06641 7.45117 2.93945 7.85156L0.791016 8.36914C0.292969 8.47656 0 8.84766 0 9.3457L0 11.1133C0 11.6211 0.292969 11.9922 0.791016 12.0996L2.95898 12.6172C3.06641 12.9688 3.21289 13.3203 3.36914 13.6621L2.22656 15.5273C1.93359 15.9473 1.99219 16.4551 2.34375 16.8066L3.59375 18.0566C3.94531 18.4082 4.43359 18.4473 4.85352 18.1836L6.72852 17.0312C7.06055 17.1875 7.42188 17.334 7.80273 17.4609L8.31055 19.6094C8.42773 20.1074 8.79883 20.4102 9.30664 20.4102ZM10.2051 13.6523C8.31055 13.6523 6.75781 12.0898 6.75781 10.1953C6.75781 8.31055 8.31055 6.75781 10.2051 6.75781C12.0996 6.75781 13.6523 8.31055 13.6523 10.1953C13.6523 12.0898 12.0996 13.6523 10.2051 13.6523Z" fill="currentColor" fill-opacity="1"/>
 </g>
</svg>
