<?xml version="1.0" encoding="UTF-8"?>
<!--Generator: Apple Native CoreSVG 232.5-->
<!DOCTYPE svg
PUBLIC "-//W3C//DTD SVG 1.1//EN"
       "http://www.w3.org/Graphics/SVG/1.1/DTD/svg11.dtd">
<svg version="1.1" xmlns="http://www.w3.org/2000/svg" xmlns:xlink="http://www.w3.org/1999/xlink" width="20.1172" height="10.0293">
 <g>
  <rect height="10.0293" opacity="0" width="20.1172" x="0" y="0"/>
  <path d="M0.732422 10.0293L19.0137 10.0293C19.4238 10.0293 19.7559 9.69727 19.7559 9.27734C19.7559 8.86719 19.4238 8.54492 19.0137 8.54492L0.732422 8.54492C0.322266 8.54492 0 8.86719 0 9.27734C0 9.69727 0.322266 10.0293 0.732422 10.0293Z" fill="currentColor" fill-opacity="1"/>
  <path d="M0.732422 5.76172L19.0137 5.76172C19.4238 5.76172 19.7559 5.43945 19.7559 5.0293C19.7559 4.60938 19.4238 4.27734 19.0137 4.27734L0.732422 4.27734C0.322266 4.27734 0 4.60938 0 5.0293C0 5.43945 0.322266 5.76172 0.732422 5.76172Z" fill="currentColor" fill-opacity="1"/>
  <path d="M0.732422 1.50391L19.0137 1.50391C19.4238 1.50391 19.7559 1.18164 19.7559 0.771484C19.7559 0.361328 19.4238 0.0292969 19.0137 0.0292969L0.732422 0.0292969C0.322266 0.0292969 0 0.361328 0 0.771484C0 1.18164 0.322266 1.50391 0.732422 1.50391Z" fill="currentColor" fill-opacity="1"/>
 </g>
</svg>
