<?xml version="1.0" encoding="UTF-8"?>
<!--Generator: Apple Native CoreSVG 232.5-->
<!DOCTYPE svg
PUBLIC "-//W3C//DTD SVG 1.1//EN"
       "http://www.w3.org/Graphics/SVG/1.1/DTD/svg11.dtd">
<svg version="1.1" xmlns="http://www.w3.org/2000/svg" xmlns:xlink="http://www.w3.org/1999/xlink" width="24.8535" height="18.584">
 <g>
  <rect height="18.584" opacity="0" width="24.8535" x="0" y="0"/>
  <path d="M0 17.7832C0 18.2129 0.351562 18.5742 0.78125 18.5742L23.7109 18.5742C24.1406 18.5742 24.4922 18.2129 24.4922 17.7832C24.4922 17.3535 24.1406 17.002 23.7109 17.002L0.78125 17.002C0.351562 17.002 0 17.3535 0 17.7832ZM0 0.791016C0 1.2207 0.351562 1.57227 0.78125 1.57227L23.7109 1.57227C24.1406 1.57227 24.4922 1.2207 24.4922 0.791016C24.4922 0.361328 24.1406 0 23.7109 0L0.78125 0C0.351562 0 0 0.361328 0 0.791016Z" fill="currentColor" fill-opacity="1"/>
  <path d="M9.72656 13.7598L12.2559 11.9141L14.7754 13.7598C15.2637 14.1211 15.8398 13.7891 15.625 13.1445L14.6387 10.1855L17.2168 8.32031C17.7441 7.94922 17.5098 7.33398 16.9141 7.33398L13.7207 7.33398L12.7832 4.39453C12.5977 3.81836 11.9141 3.81836 11.7383 4.39453L10.7812 7.33398L7.57812 7.33398C6.98242 7.33398 6.74805 7.94922 7.27539 8.32031L9.87305 10.1855L8.87695 13.1445C8.66211 13.7891 9.23828 14.1211 9.72656 13.7598Z" fill="currentColor" fill-opacity="1"/>
 </g>
</svg>
