<?xml version="1.0" encoding="UTF-8"?>
<!--Generator: Apple Native CoreSVG 326-->
<!DOCTYPE svg
PUBLIC "-//W3C//DTD SVG 1.1//EN"
       "http://www.w3.org/Graphics/SVG/1.1/DTD/svg11.dtd">
<svg version="1.1" xmlns="http://www.w3.org/2000/svg" xmlns:xlink="http://www.w3.org/1999/xlink" width="20.0391" height="14.2676">
 <g>
  <rect height="14.2676" opacity="0" width="20.0391" x="0" y="0"/>
  <path d="M5.54688 13.8281L18.877 13.8281C19.3164 13.8281 19.6777 13.4863 19.6777 13.0371C19.6777 12.5977 19.3164 12.2559 18.877 12.2559L5.54688 12.2559C5.09766 12.2559 4.75586 12.5977 4.75586 13.0371C4.75586 13.4863 5.09766 13.8281 5.54688 13.8281Z" fill="currentColor" fill-opacity="1"/>
  <path d="M1.23047 14.2676C1.91406 14.2676 2.46094 13.7207 2.46094 13.0371C2.46094 12.3633 1.91406 11.8164 1.23047 11.8164C0.546875 11.8164 0 12.3633 0 13.0371C0 13.7207 0.546875 14.2676 1.23047 14.2676Z" fill="currentColor" fill-opacity="1"/>
  <path d="M5.54688 7.91992L18.877 7.91992C19.3164 7.91992 19.6777 7.57812 19.6777 7.13867C19.6777 6.69922 19.3164 6.34766 18.877 6.34766L5.54688 6.34766C5.09766 6.34766 4.75586 6.69922 4.75586 7.13867C4.75586 7.57812 5.09766 7.91992 5.54688 7.91992Z" fill="currentColor" fill-opacity="1"/>
  <path d="M1.23047 8.36914C1.91406 8.36914 2.46094 7.82227 2.46094 7.13867C2.46094 6.45508 1.91406 5.9082 1.23047 5.9082C0.546875 5.9082 0 6.45508 0 7.13867C0 7.82227 0.546875 8.36914 1.23047 8.36914Z" fill="currentColor" fill-opacity="1"/>
  <path d="M5.54688 2.02148L18.877 2.02148C19.3164 2.02148 19.6777 1.67969 19.6777 1.23047C19.6777 0.791016 19.3164 0.449219 18.877 0.449219L5.54688 0.449219C5.09766 0.449219 4.75586 0.791016 4.75586 1.23047C4.75586 1.67969 5.09766 2.02148 5.54688 2.02148Z" fill="currentColor" fill-opacity="1"/>
  <path d="M1.23047 2.46094C1.91406 2.46094 2.46094 1.91406 2.46094 1.23047C2.46094 0.556641 1.91406 0 1.23047 0C0.546875 0 0 0.556641 0 1.23047C0 1.91406 0.546875 2.46094 1.23047 2.46094Z" fill="currentColor" fill-opacity="1"/>
 </g>
</svg>
