<?xml version="1.0" encoding="UTF-8"?>
<!--Generator: Apple Native CoreSVG 232.5-->
<!DOCTYPE svg
PUBLIC "-//W3C//DTD SVG 1.1//EN"
       "http://www.w3.org/Graphics/SVG/1.1/DTD/svg11.dtd">
<svg version="1.1" xmlns="http://www.w3.org/2000/svg" xmlns:xlink="http://www.w3.org/1999/xlink" width="19.4824" height="19.1309">
 <g>
  <rect height="19.1309" opacity="0" width="19.4824" x="0" y="0"/>
  <path d="M0.78125 6.23047C1.29883 6.23047 1.57227 5.9375 1.57227 5.42969L1.57227 3.125C1.57227 2.10938 2.10938 1.5918 3.08594 1.5918L5.44922 1.5918C5.9668 1.5918 6.25 1.30859 6.25 0.800781C6.25 0.292969 5.9668 0.0195312 5.44922 0.0195312L3.06641 0.0195312C1.02539 0.0195312 0 1.02539 0 3.03711L0 5.42969C0 5.9375 0.283203 6.23047 0.78125 6.23047ZM18.3301 6.23047C18.8477 6.23047 19.1211 5.9375 19.1211 5.42969L19.1211 3.03711C19.1211 1.02539 18.0957 0.0195312 16.0547 0.0195312L13.6621 0.0195312C13.1543 0.0195312 12.8711 0.292969 12.8711 0.800781C12.8711 1.30859 13.1543 1.5918 13.6621 1.5918L16.0254 1.5918C16.9922 1.5918 17.5488 2.10938 17.5488 3.125L17.5488 5.42969C17.5488 5.9375 17.832 6.23047 18.3301 6.23047ZM3.06641 19.1309L5.44922 19.1309C5.9668 19.1309 6.25 18.8477 6.25 18.3496C6.25 17.8418 5.9668 17.5586 5.44922 17.5586L3.08594 17.5586C2.10938 17.5586 1.57227 17.041 1.57227 16.0254L1.57227 13.7207C1.57227 13.2031 1.28906 12.9199 0.78125 12.9199C0.273438 12.9199 0 13.2031 0 13.7207L0 16.1035C0 18.125 1.02539 19.1309 3.06641 19.1309ZM13.6621 19.1309L16.0547 19.1309C18.0957 19.1309 19.1211 18.1152 19.1211 16.1035L19.1211 13.7207C19.1211 13.2031 18.8379 12.9199 18.3301 12.9199C17.8223 12.9199 17.5488 13.2031 17.5488 13.7207L17.5488 16.0254C17.5488 17.041 16.9922 17.5586 16.0254 17.5586L13.6621 17.5586C13.1543 17.5586 12.8711 17.8418 12.8711 18.3496C12.8711 18.8477 13.1543 19.1309 13.6621 19.1309Z" fill="currentColor" fill-opacity="1"/>
  <path d="M4.38477 10.4004L8.47656 10.4004C8.67188 10.4004 8.78906 10.5273 8.78906 10.7227L8.78906 14.7559C8.78906 15.6348 9.7168 15.7227 10.0098 15.0879L14.3457 5.84961C14.6973 5.09766 14.0527 4.44336 13.291 4.80469L4.0625 9.18945C3.42773 9.48242 3.53516 10.4004 4.38477 10.4004Z" fill="currentColor" fill-opacity="1"/>
 </g>
</svg>
