<?xml version="1.0" encoding="UTF-8"?>
<!--Generator: Apple Native CoreSVG 232.5-->
<!DOCTYPE svg
PUBLIC "-//W3C//DTD SVG 1.1//EN"
       "http://www.w3.org/Graphics/SVG/1.1/DTD/svg11.dtd">
<svg version="1.1" xmlns="http://www.w3.org/2000/svg" xmlns:xlink="http://www.w3.org/1999/xlink" width="20.6738" height="19.1504">
 <g>
  <rect height="19.1504" opacity="0" width="20.6738" x="0" y="0"/>
  <path d="M0 17.6953C0 18.4082 0.410156 18.8184 1.11328 18.8184C1.36719 18.8184 1.61133 18.7402 1.93359 18.5645L6.03516 16.3477L6.03516 0.166016C5.85938 0.253906 5.66406 0.351562 5.48828 0.449219L0.859375 3.10547C0.273438 3.42773 0 3.89648 0 4.55078ZM7.37305 16.1621L12.2949 18.9258C12.4414 19.0039 12.5977 19.0723 12.7441 19.1113L12.7441 3.17383L7.91992 0.224609C7.75391 0.117188 7.55859 0.0390625 7.37305 0ZM14.0723 19.082C14.1699 19.0527 14.2773 19.0137 14.3652 18.9551L19.4531 16.0645C20.0391 15.7422 20.3125 15.2734 20.3125 14.6191L20.3125 1.46484C20.3125 0.742188 19.9023 0.341797 19.1992 0.341797C18.9453 0.341797 18.7012 0.419922 18.3789 0.595703L14.0723 2.98828Z" fill="currentColor" fill-opacity="1"/>
 </g>
</svg>
