<?xml version="1.0" encoding="UTF-8"?>
<!--Generator: Apple Native CoreSVG 232.5-->
<!DOCTYPE svg
PUBLIC "-//W3C//DTD SVG 1.1//EN"
       "http://www.w3.org/Graphics/SVG/1.1/DTD/svg11.dtd">
<svg version="1.1" xmlns="http://www.w3.org/2000/svg" xmlns:xlink="http://www.w3.org/1999/xlink" width="20.2832" height="19.9316">
 <g>
  <rect height="19.9316" opacity="0" width="20.2832" x="0" y="0"/>
  <path d="M19.9219 9.9707C19.9219 15.4199 15.4102 19.9316 9.96094 19.9316C4.52148 19.9316 0 15.4199 0 9.9707C0 4.53125 4.51172 0.00976562 9.95117 0.00976562C15.4004 0.00976562 19.9219 4.53125 19.9219 9.9707ZM7.65625 6.20117C7.65625 7.23633 8.33984 8.0957 9.25781 8.37891L9.25781 13.4277C9.25781 14.9023 9.50195 16.2305 9.96094 16.2305C10.4297 16.2305 10.6543 14.9316 10.6543 13.4277L10.6543 8.37891C11.582 8.10547 12.2656 7.24609 12.2656 6.20117C12.2656 4.93164 11.2305 3.90625 9.96094 3.90625C8.70117 3.90625 7.65625 4.93164 7.65625 6.20117ZM10.0977 5.61523C10.0977 6.00586 9.76562 6.34766 9.36523 6.34766C8.98438 6.34766 8.64258 6.00586 8.64258 5.61523C8.63281 5.21484 8.98438 4.87305 9.36523 4.87305C9.76562 4.87305 10.0977 5.21484 10.0977 5.61523Z" fill="currentColor" fill-opacity="1"/>
 </g>
</svg>
