<?xml version="1.0" encoding="UTF-8"?>
<!--Generator: Apple Native CoreSVG 232.5-->
<!DOCTYPE svg
PUBLIC "-//W3C//DTD SVG 1.1//EN"
       "http://www.w3.org/Graphics/SVG/1.1/DTD/svg11.dtd">
<svg version="1.1" xmlns="http://www.w3.org/2000/svg" xmlns:xlink="http://www.w3.org/1999/xlink" width="20.8357" height="18.6694">
 <g>
  <rect height="18.6694" opacity="0" width="20.8357" x="0" y="0"/>
  <path d="M2.49303 14.9939L3.27428 16.3416L10.2372 12.8455L17.2001 16.3416L17.9911 14.9939L11.0282 11.4978L11.0282 3.25562L9.45592 3.25562L9.45592 11.4978ZM0.110214 16.3709C-0.163224 16.9959 0.0809171 17.3962 0.74498 17.4744L4.78795 17.9138C5.68639 18.0212 6.21373 17.4646 5.73521 16.6443L3.3231 12.4646C2.86412 11.6638 2.11217 11.8298 1.7606 12.6502ZM20.3641 16.3709L18.7235 12.6502C18.3622 11.8298 17.62 11.6638 17.161 12.4646L14.7391 16.6443C14.2606 17.4646 14.7977 18.0212 15.6864 17.9138L19.7294 17.4744C20.3934 17.3962 20.6376 16.9959 20.3641 16.3709ZM9.59264 0.413826L7.20006 3.68531C6.66295 4.40797 6.88756 5.15015 7.82506 5.15015L12.6395 5.15015C13.5965 5.15015 13.8016 4.41773 13.2645 3.68531L10.8622 0.413826C10.452-0.133049 10.0028-0.142814 9.59264 0.413826Z" fill="currentColor" fill-opacity="1"/>
 </g>
</svg>
