<?xml version="1.0" encoding="UTF-8"?>
<!--Generator: Apple Native CoreSVG 232.5-->
<!DOCTYPE svg
PUBLIC "-//W3C//DTD SVG 1.1//EN"
       "http://www.w3.org/Graphics/SVG/1.1/DTD/svg11.dtd">
<svg version="1.1" xmlns="http://www.w3.org/2000/svg" xmlns:xlink="http://www.w3.org/1999/xlink" width="17.8711" height="19.0723">
 <g>
  <rect height="19.0723" opacity="0" width="17.8711" x="0" y="0"/>
  <path d="M3.58398 19.0723C4.05273 19.0723 4.39453 18.8184 4.49219 18.3398L7.96875 1.11328C7.98828 1.05469 8.00781 0.927734 8.00781 0.800781C8.00781 0.322266 7.65625 0.0488281 7.1875 0.0488281C6.64062 0.0488281 6.38672 0.351562 6.29883 0.810547L2.82227 18.0176C2.80273 18.1152 2.7832 18.2324 2.7832 18.3301C2.7832 18.8086 3.11523 19.0723 3.58398 19.0723ZM9.93164 19.0723C10.4102 19.0723 10.7422 18.8184 10.8398 18.3398L14.3262 1.11328C14.3359 1.05469 14.3555 0.927734 14.3555 0.800781C14.3555 0.322266 14.0039 0.0488281 13.5449 0.0488281C12.9883 0.0488281 12.7441 0.351562 12.6562 0.810547L9.16992 18.0176C9.15039 18.1152 9.14062 18.2324 9.14062 18.3301C9.14062 18.8086 9.47266 19.0723 9.93164 19.0723ZM2.05078 6.74805L16.6016 6.74805C17.1387 6.74805 17.5098 6.35742 17.5098 5.83008C17.5098 5.40039 17.2168 5.04883 16.7773 5.04883L2.22656 5.04883C1.69922 5.04883 1.31836 5.45898 1.31836 5.99609C1.31836 6.43555 1.62109 6.74805 2.05078 6.74805ZM0.732422 13.6035L15.2832 13.6035C15.8105 13.6035 16.1914 13.2129 16.1914 12.6855C16.1914 12.2559 15.8887 11.9043 15.459 11.9043L0.908203 11.9043C0.371094 11.9043 0 12.3145 0 12.8516C0 13.291 0.292969 13.6035 0.732422 13.6035Z" fill="currentColor" fill-opacity="1"/>
 </g>
</svg>
