<?xml version="1.0" encoding="UTF-8"?>
<!--Generator: Apple Native CoreSVG 232.5-->
<!DOCTYPE svg
PUBLIC "-//W3C//DTD SVG 1.1//EN"
       "http://www.w3.org/Graphics/SVG/1.1/DTD/svg11.dtd">
<svg version="1.1" xmlns="http://www.w3.org/2000/svg" xmlns:xlink="http://www.w3.org/1999/xlink" width="17.666" height="21.6309">
 <g>
  <rect height="21.6309" opacity="0" width="17.666" x="0" y="0"/>
  <path d="M11.0059 3.14453C11.0059 3.41457 11.04 3.67684 11.1079 3.92578L5.14648 3.92578C2.94922 3.92578 1.57227 4.96094 1.57227 6.5918C1.57227 8.25195 3.04688 9.375 5.98633 9.67773L11.5527 10.2637C15.3418 10.6445 17.3047 12.3828 17.3047 15.0391C17.3047 17.6367 15.3125 19.2773 12.1582 19.2773L6.19241 19.2773C6.2631 19.0225 6.29883 18.7536 6.29883 18.4766C6.29883 18.2102 6.26542 17.9512 6.19894 17.7051L12.1582 17.7051C14.3555 17.7051 15.7324 16.6699 15.7324 15.0391C15.7324 13.3789 14.248 12.2559 11.3184 11.9531L5.73242 11.3672C1.95312 10.9863 0 9.24805 0 6.5918C0 3.99414 1.99219 2.35352 5.14648 2.35352L11.1114 2.35352C11.0413 2.60551 11.0059 2.87111 11.0059 3.14453Z" fill="currentColor" fill-opacity="1"/>
  <path d="M3.1543 21.6309C4.89258 21.6309 6.29883 20.2148 6.29883 18.4766C6.29883 16.748 4.89258 15.332 3.1543 15.332C1.41602 15.332 0.00976562 16.748 0.00976562 18.4766C0.00976562 20.2148 1.41602 21.6309 3.1543 21.6309ZM14.1504 6.29883C15.8984 6.29883 17.3047 4.88281 17.3047 3.14453C17.3047 1.41602 15.8984 0 14.1504 0C12.4219 0 11.0059 1.41602 11.0059 3.14453C11.0059 4.88281 12.4219 6.29883 14.1504 6.29883Z" fill="currentColor" fill-opacity="1"/>
 </g>
</svg>
