<?xml version="1.0" encoding="UTF-8"?>
<!--Generator: Apple Native CoreSVG 232.5-->
<!DOCTYPE svg
PUBLIC "-//W3C//DTD SVG 1.1//EN"
       "http://www.w3.org/Graphics/SVG/1.1/DTD/svg11.dtd">
<svg version="1.1" xmlns="http://www.w3.org/2000/svg" xmlns:xlink="http://www.w3.org/1999/xlink" width="23.6523" height="18.916">
 <g>
  <rect height="18.916" opacity="0" width="23.6523" x="0" y="0"/>
  <path d="M0.380859 15.9277C0.380859 17.8613 1.37695 18.877 3.30078 18.877L15.3809 18.877C17.3242 18.877 18.3398 17.8809 18.3398 15.9668L18.3398 11.8457C18.3398 11.6504 18.4961 11.5625 18.6914 11.7188C19.2285 12.1289 19.8633 12.4609 20.7031 12.4609C22.3633 12.4609 23.6523 11.1523 23.6523 9.47266C23.6523 7.80273 22.3633 6.49414 20.7031 6.49414C19.8633 6.49414 19.2285 6.82617 18.6914 7.23633C18.4961 7.39258 18.3398 7.30469 18.3398 7.10938L18.3398 2.91016C18.3398 0.996094 17.3242 0 15.3809 0L3.30078 0C1.37695 0 0.380859 1.01562 0.380859 2.94922L0.380859 7.13867C0.380859 7.77344 0.878906 8.19336 1.46484 8.19336C1.78711 8.19336 2.12891 8.05664 2.43164 7.76367C2.89062 7.33398 3.45703 6.78711 4.58984 6.78711C6.06445 6.78711 7.22656 7.95898 7.22656 9.45312C7.22656 10.9473 6.06445 12.1191 4.58984 12.1191C3.45703 12.1191 2.89062 11.5625 2.43164 11.1328C2.12891 10.8496 1.78711 10.7129 1.46484 10.7129C0.878906 10.7129 0.380859 11.1328 0.380859 11.7676Z" fill="currentColor" fill-opacity="1"/>
 </g>
</svg>
