<?xml version="1.0" encoding="UTF-8"?>
<!--Generator: Apple Native CoreSVG 232.5-->
<!DOCTYPE svg
PUBLIC "-//W3C//DTD SVG 1.1//EN"
       "http://www.w3.org/Graphics/SVG/1.1/DTD/svg11.dtd">
<svg version="1.1" xmlns="http://www.w3.org/2000/svg" xmlns:xlink="http://www.w3.org/1999/xlink" width="18.3398" height="17.998">
 <g>
  <rect height="17.998" opacity="0" width="18.3398" x="0" y="0"/>
  <path d="M1.86523 8.20312L6.31836 8.20312C7.55859 8.20312 8.18359 7.57812 8.18359 6.28906L8.18359 1.92383C8.18359 0.634766 7.55859 0.0195312 6.31836 0.0195312L1.86523 0.0195312C0.625 0.0195312 0 0.634766 0 1.92383L0 6.28906C0 7.57812 0.625 8.20312 1.86523 8.20312ZM1.88477 6.82617C1.54297 6.82617 1.37695 6.65039 1.37695 6.28906L1.37695 1.92383C1.37695 1.57227 1.54297 1.39648 1.88477 1.39648L6.28906 1.39648C6.63086 1.39648 6.80664 1.57227 6.80664 1.92383L6.80664 6.28906C6.80664 6.65039 6.63086 6.82617 6.28906 6.82617ZM3.25195 5.13672L4.92188 5.13672C5.05859 5.13672 5.11719 5.07812 5.11719 4.91211L5.11719 3.29102C5.11719 3.13477 5.05859 3.07617 4.92188 3.07617L3.25195 3.07617C3.10547 3.07617 3.05664 3.13477 3.05664 3.29102L3.05664 4.91211C3.05664 5.07812 3.10547 5.13672 3.25195 5.13672ZM11.6699 8.20312L16.1133 8.20312C17.3535 8.20312 17.9785 7.57812 17.9785 6.28906L17.9785 1.92383C17.9785 0.634766 17.3535 0.0195312 16.1133 0.0195312L11.6699 0.0195312C10.4199 0.0195312 9.79492 0.634766 9.79492 1.92383L9.79492 6.28906C9.79492 7.57812 10.4199 8.20312 11.6699 8.20312ZM11.6895 6.82617C11.3379 6.82617 11.1719 6.65039 11.1719 6.28906L11.1719 1.92383C11.1719 1.57227 11.3379 1.39648 11.6895 1.39648L16.0938 1.39648C16.4355 1.39648 16.6016 1.57227 16.6016 1.92383L16.6016 6.28906C16.6016 6.65039 16.4355 6.82617 16.0938 6.82617ZM13.1055 5.13672L14.7754 5.13672C14.9219 5.13672 14.9805 5.07812 14.9805 4.91211L14.9805 3.29102C14.9805 3.13477 14.9219 3.07617 14.7754 3.07617L13.1055 3.07617C12.9688 3.07617 12.9199 3.13477 12.9199 3.29102L12.9199 4.91211C12.9199 5.07812 12.9688 5.13672 13.1055 5.13672ZM1.86523 17.998L6.31836 17.998C7.55859 17.998 8.18359 17.3828 8.18359 16.0938L8.18359 11.7188C8.18359 10.4395 7.55859 9.81445 6.31836 9.81445L1.86523 9.81445C0.625 9.81445 0 10.4395 0 11.7188L0 16.0938C0 17.3828 0.625 17.998 1.86523 17.998ZM1.88477 16.6211C1.54297 16.6211 1.37695 16.4453 1.37695 16.0938L1.37695 11.7285C1.37695 11.3672 1.54297 11.1914 1.88477 11.1914L6.28906 11.1914C6.63086 11.1914 6.80664 11.3672 6.80664 11.7285L6.80664 16.0938C6.80664 16.4453 6.63086 16.6211 6.28906 16.6211ZM3.25195 14.9414L4.92188 14.9414C5.05859 14.9414 5.11719 14.8828 5.11719 14.707L5.11719 13.0957C5.11719 12.9395 5.05859 12.8809 4.92188 12.8809L3.25195 12.8809C3.10547 12.8809 3.05664 12.9395 3.05664 13.0957L3.05664 14.707C3.05664 14.8828 3.10547 14.9414 3.25195 14.9414ZM10.459 12.3438L12.1289 12.3438C12.2656 12.3438 12.3242 12.2852 12.3242 12.1191L12.3242 10.498C12.3242 10.3418 12.2656 10.2832 12.1289 10.2832L10.459 10.2832C10.3125 10.2832 10.2637 10.3418 10.2637 10.498L10.2637 12.1191C10.2637 12.2852 10.3125 12.3438 10.459 12.3438ZM15.6445 12.3438L17.3145 12.3438C17.4512 12.3438 17.5098 12.2852 17.5098 12.1191L17.5098 10.498C17.5098 10.3418 17.4512 10.2832 17.3145 10.2832L15.6445 10.2832C15.498 10.2832 15.4492 10.3418 15.4492 10.498L15.4492 12.1191C15.4492 12.2852 15.498 12.3438 15.6445 12.3438ZM13.0762 14.9414L14.7461 14.9414C14.8828 14.9414 14.9414 14.8828 14.9414 14.707L14.9414 13.0957C14.9414 12.9395 14.8828 12.8809 14.7461 12.8809L13.0762 12.8809C12.9297 12.8809 12.8809 12.9395 12.8809 13.0957L12.8809 14.707C12.8809 14.8828 12.9297 14.9414 13.0762 14.9414ZM10.459 17.5293L12.1289 17.5293C12.2656 17.5293 12.3242 17.4707 12.3242 17.3047L12.3242 15.6836C12.3242 15.5273 12.2656 15.4688 12.1289 15.4688L10.459 15.4688C10.3125 15.4688 10.2637 15.5273 10.2637 15.6836L10.2637 17.3047C10.2637 17.4707 10.3125 17.5293 10.459 17.5293ZM15.6445 17.5293L17.3145 17.5293C17.4512 17.5293 17.5098 17.4707 17.5098 17.3047L17.5098 15.6836C17.5098 15.5273 17.4512 15.4688 17.3145 15.4688L15.6445 15.4688C15.498 15.4688 15.4492 15.5273 15.4492 15.6836L15.4492 17.3047C15.4492 17.4707 15.498 17.5293 15.6445 17.5293Z" fill="currentColor" fill-opacity="1"/>
 </g>
</svg>
