<?xml version="1.0" encoding="UTF-8"?>
<!--Generator: Apple Native CoreSVG 232.5-->
<!DOCTYPE svg
PUBLIC "-//W3C//DTD SVG 1.1//EN"
       "http://www.w3.org/Graphics/SVG/1.1/DTD/svg11.dtd">
<svg version="1.1" xmlns="http://www.w3.org/2000/svg" xmlns:xlink="http://www.w3.org/1999/xlink" width="21.0725" height="19.7894">
 <g>
  <rect height="19.7894" opacity="0" width="21.0725" x="0" y="0"/>
  <path d="M0.428813 12.5656C0.936626 13.0734 1.96202 13.2004 2.75303 12.4875C3.0167 12.2531 3.56358 11.6672 4.6085 10.6222C9.59874 5.56363 12.8898 2.24332 13.5929 2.87809C14.1593 3.37613 12.4308 5.81754 10.7901 8.08317C7.71397 12.3703 5.2628 15.339 7.0792 17.1554C8.53428 18.6105 10.7999 17.1457 14.2862 14.089C16.2491 12.3605 17.7237 10.964 18.1534 11.4035C18.4757 11.716 17.9776 12.5461 17.2452 13.8156C16.298 15.4367 15.1163 17.175 16.2491 18.3078C17.0304 19.0793 18.544 18.7472 20.4093 16.9211C20.7413 16.589 20.8194 16.2179 20.5558 15.9543C20.3019 15.7101 19.9503 15.7492 19.6866 15.9933C18.3292 17.3214 17.4405 17.7414 17.2159 17.507C16.9523 17.2531 17.4308 16.3839 18.4269 14.6359C19.6866 12.4289 20.3605 11.0422 19.296 10.007C17.8702 8.62028 16.1808 10.1047 13.0558 12.8488C10.1163 15.4367 9.25694 15.8566 8.88584 15.4953C8.3878 14.9875 9.14952 14.089 12.4405 9.48942C15.5167 5.18278 17.3038 2.49723 15.6339 0.885901C13.3585-1.3309 10.4288 0.417151 2.40147 8.3566C1.33702 9.41129 0.751079 9.96793 0.516704 10.2218C-0.235249 11.0519-0.0789993 12.0578 0.428813 12.5656Z" fill="currentColor" fill-opacity="1"/>
 </g>
</svg>
