<?xml version="1.0" encoding="UTF-8"?>
<!--Generator: Apple Native CoreSVG 232.5-->
<!DOCTYPE svg
PUBLIC "-//W3C//DTD SVG 1.1//EN"
       "http://www.w3.org/Graphics/SVG/1.1/DTD/svg11.dtd">
<svg version="1.1" xmlns="http://www.w3.org/2000/svg" xmlns:xlink="http://www.w3.org/1999/xlink" width="26.5039" height="25.1074">
 <g>
  <rect height="25.1074" opacity="0" width="26.5039" x="0" y="0"/>
  <path d="M8.68164 21.6113C8.68164 21.9922 8.36914 22.3047 7.98828 22.3047C7.60742 22.3047 7.29492 21.9922 7.29492 21.6113C7.29492 21.2305 7.60742 20.918 7.98828 20.918C8.36914 20.918 8.68164 21.2305 8.68164 21.6113ZM7.67578 19.7949C7.67578 20.1758 7.36328 20.4883 6.98242 20.4883C6.60156 20.4883 6.28906 20.1758 6.28906 19.7949C6.28906 19.4141 6.60156 19.1016 6.98242 19.1016C7.36328 19.1016 7.67578 19.4141 7.67578 19.7949ZM6.66016 17.9785C6.66016 18.3594 6.34766 18.6719 5.9668 18.6719C5.58594 18.6719 5.27344 18.3594 5.27344 17.9785C5.27344 17.5977 5.58594 17.2852 5.9668 17.2852C6.34766 17.2852 6.66016 17.5977 6.66016 17.9785ZM5.63477 16.1816C5.63477 16.5625 5.32227 16.875 4.94141 16.875C4.56055 16.875 4.24805 16.5625 4.24805 16.1816C4.24805 15.791 4.56055 15.4883 4.94141 15.4883C5.32227 15.4883 5.63477 15.791 5.63477 16.1816ZM4.62891 14.3555C4.62891 14.7363 4.31641 15.0488 3.93555 15.0488C3.54492 15.0488 3.24219 14.7363 3.24219 14.3555C3.24219 13.9746 3.54492 13.6621 3.93555 13.6621C4.31641 13.6621 4.62891 13.9746 4.62891 14.3555ZM3.60352 12.5488C3.60352 12.9297 3.29102 13.2422 2.91016 13.2422C2.5293 13.2422 2.2168 12.9297 2.2168 12.5488C2.2168 12.168 2.5293 11.8555 2.91016 11.8555C3.29102 11.8555 3.60352 12.168 3.60352 12.5488ZM4.62891 10.7422C4.62891 11.123 4.31641 11.4355 3.93555 11.4355C3.54492 11.4355 3.24219 11.123 3.24219 10.7422C3.24219 10.3516 3.54492 10.0391 3.93555 10.0391C4.31641 10.0391 4.62891 10.3516 4.62891 10.7422ZM5.63477 8.91602C5.63477 9.29688 5.32227 9.60938 4.94141 9.60938C4.56055 9.60938 4.24805 9.29688 4.24805 8.91602C4.24805 8.53516 4.56055 8.22266 4.94141 8.22266C5.32227 8.22266 5.63477 8.53516 5.63477 8.91602ZM6.66016 7.11914C6.66016 7.5 6.34766 7.8125 5.9668 7.8125C5.58594 7.8125 5.27344 7.5 5.27344 7.11914C5.27344 6.73828 5.58594 6.42578 5.9668 6.42578C6.34766 6.42578 6.66016 6.73828 6.66016 7.11914ZM7.67578 5.29297C7.67578 5.68359 7.36328 5.98633 6.98242 5.98633C6.60156 5.98633 6.28906 5.68359 6.28906 5.29297C6.28906 4.91211 6.60156 4.59961 6.98242 4.59961C7.36328 4.59961 7.67578 4.91211 7.67578 5.29297ZM8.68164 3.48633C8.68164 3.86719 8.36914 4.17969 7.98828 4.17969C7.60742 4.17969 7.29492 3.86719 7.29492 3.48633C7.29492 3.10547 7.60742 2.79297 7.98828 2.79297C8.36914 2.79297 8.68164 3.10547 8.68164 3.48633Z" fill="currentColor" fill-opacity="1"/>
  <path d="M13.7876 3.01348L8.45703 12.1777C8.36914 12.3242 8.33008 12.4316 8.33008 12.5488C8.33008 12.6465 8.36914 12.7637 8.45703 12.9199L13.7876 22.0842C13.5133 22.3959 13.2416 22.5293 12.8906 22.5293C12.3535 22.5293 12.002 22.2168 11.5332 21.4355L7.08984 13.7891C6.81641 13.3203 6.68945 12.9395 6.68945 12.5488C6.68945 12.1484 6.80664 11.7773 7.08008 11.3086L11.5332 3.66211C12.002 2.88086 12.3535 2.56836 12.8906 2.56836C13.2416 2.56836 13.5133 2.7018 13.7876 3.01348Z" fill="currentColor" fill-opacity="1"/>
  <path d="M17.6758 22.5293C18.2129 22.5293 18.5645 22.2168 19.0332 21.4355L23.4766 13.7891C23.75 13.3203 23.877 12.9395 23.877 12.5488C23.877 12.1484 23.75 11.7773 23.4766 11.3086L19.0332 3.66211C18.5645 2.88086 18.2129 2.56836 17.6758 2.56836C17.1387 2.56836 16.7871 2.88086 16.3281 3.66211L11.875 11.3086C11.6016 11.7773 11.4746 12.1484 11.4746 12.5488C11.4746 12.9395 11.6016 13.3203 11.875 13.7891L16.3281 21.4355C16.7871 22.2168 17.1387 22.5293 17.6758 22.5293Z" fill="currentColor" fill-opacity="1"/>
 </g>
</svg>
