<?xml version="1.0" encoding="UTF-8"?>
<!--Generator: Apple Native CoreSVG 232.5-->
<!DOCTYPE svg
PUBLIC "-//W3C//DTD SVG 1.1//EN"
       "http://www.w3.org/Graphics/SVG/1.1/DTD/svg11.dtd">
<svg version="1.1" xmlns="http://www.w3.org/2000/svg" xmlns:xlink="http://www.w3.org/1999/xlink" width="19.1699" height="18.8379">
 <g>
  <rect height="18.8379" opacity="0" width="19.1699" x="0" y="0"/>
  <path d="M0.78125 18.8184C1.2207 18.8184 1.57227 18.457 1.57227 18.0273L1.57227 14.7363L4.99023 14.7363C5.54688 14.7363 5.95703 14.3262 5.95703 13.7695L5.95703 10.3516L9.375 10.3516C9.93164 10.3516 10.3516 9.94141 10.3516 9.38477L10.3516 5.9668L13.7598 5.9668C14.3262 5.9668 14.7363 5.55664 14.7363 5L14.7363 1.57227L18.0176 1.57227C18.457 1.57227 18.8086 1.2207 18.8086 0.791016C18.8086 0.361328 18.457 0 18.0176 0L14.1309 0C13.5742 0 13.1641 0.419922 13.1641 0.976562L13.1641 4.39453L9.74609 4.39453C9.18945 4.39453 8.7793 4.80469 8.7793 5.36133L8.7793 8.7793L5.35156 8.7793C4.79492 8.7793 4.38477 9.18945 4.38477 9.75586L4.38477 13.1641L0.966797 13.1641C0.410156 13.1641 0 13.584 0 14.1406L0 18.0273C0 18.457 0.351562 18.8184 0.78125 18.8184Z" fill="currentColor" fill-opacity="1"/>
 </g>
</svg>
