<?xml version="1.0" encoding="UTF-8"?>
<!--Generator: Apple Native CoreSVG 232.5-->
<!DOCTYPE svg
PUBLIC "-//W3C//DTD SVG 1.1//EN"
       "http://www.w3.org/Graphics/SVG/1.1/DTD/svg11.dtd">
<svg version="1.1" xmlns="http://www.w3.org/2000/svg" xmlns:xlink="http://www.w3.org/1999/xlink" width="22.0527" height="22.1191">
 <g>
  <rect height="22.1191" opacity="0" width="22.0527" x="0" y="0"/>
  <path d="M4.16109 20.5469C4.56149 20.8594 5.0693 20.752 5.67477 20.3125L10.8408 16.5137L16.0166 20.3125C16.622 20.752 17.1201 20.8594 17.5302 20.5469C17.9306 20.2441 18.0185 19.7461 17.7744 19.0332L15.7334 12.959L20.9482 9.20898C21.5537 8.7793 21.7978 8.33008 21.6416 7.8418C21.4853 7.37305 21.0263 7.13867 20.2744 7.14844L13.8779 7.1875L11.9345 1.08398C11.7002 0.361328 11.3486 0 10.8408 0C10.3427 0 9.99117 0.361328 9.7568 1.08398L7.81344 7.1875L1.41695 7.14844C0.665001 7.13867 0.206017 7.37305 0.0497668 7.8418C-0.116249 8.33008 0.137657 8.7793 0.743126 9.20898L5.95797 12.959L3.91695 19.0332C3.67281 19.7461 3.7607 20.2441 4.16109 20.5469Z" fill="currentColor" fill-opacity="1"/>
 </g>
</svg>
