<?xml version="1.0" encoding="UTF-8"?>
<!--Generator: Apple Native CoreSVG 326-->
<!DOCTYPE svg
PUBLIC "-//W3C//DTD SVG 1.1//EN"
       "http://www.w3.org/Graphics/SVG/1.1/DTD/svg11.dtd">
<svg version="1.1" xmlns="http://www.w3.org/2000/svg" xmlns:xlink="http://www.w3.org/1999/xlink" viewBox="0 0 18.3398 17.9785">
 <g>
  <rect height="17.9785" opacity="0" width="18.3398" x="0" y="0"/>
  <path d="M17.9785 3.02734L17.9785 14.9609C17.9785 16.9727 16.9629 17.9785 14.9121 17.9785L3.06641 17.9785C1.02539 17.9785 0 16.9727 0 14.9609L0 3.02734C0 1.01562 1.02539 0 3.06641 0L14.9121 0C16.9629 0 17.9785 1.01562 17.9785 3.02734ZM10.3223 5.77148L8.52539 9.67773C8.34961 10.0684 8.29102 10.332 8.29102 10.6445C8.29102 11.1328 8.63281 11.4648 9.12109 11.4648L11.377 11.4648L11.377 12.4707C11.377 12.998 11.7578 13.1836 12.0801 13.1836C12.4609 13.1836 12.7734 12.9492 12.7734 12.4707L12.7734 11.4648L13.125 11.4648C13.5156 11.4648 13.7012 11.2109 13.7012 10.8691C13.7012 10.5469 13.5254 10.293 13.125 10.293L12.7734 10.293L12.7734 5.87891C12.7734 5.17578 12.3047 4.78516 11.6504 4.78516C10.9375 4.78516 10.6055 5.14648 10.3223 5.77148ZM4.94141 5.19531L3.83789 6.05469C3.65234 6.19141 3.50586 6.38672 3.50586 6.65039C3.50586 6.96289 3.7207 7.1875 4.02344 7.1875C4.18945 7.1875 4.28711 7.13867 4.39453 7.06055L5.3125 6.31836L5.3125 12.4219C5.3125 12.832 5.64453 13.1641 6.06445 13.1641C6.45508 13.1641 6.78711 12.832 6.78711 12.4219L6.78711 5.60547C6.78711 5.08789 6.46484 4.78516 5.9375 4.78516C5.51758 4.78516 5.17578 5.01953 4.94141 5.19531ZM11.4062 10.3223L9.54102 10.3223L9.54102 10.2539L11.3672 6.05469L11.4062 6.05469Z" fill="black" fill-opacity="0.85"/>
 </g>
</svg>
