<?xml version="1.0" encoding="UTF-8"?>
<!--Generator: Apple Native CoreSVG 326-->
<!DOCTYPE svg
PUBLIC "-//W3C//DTD SVG 1.1//EN"
       "http://www.w3.org/Graphics/SVG/1.1/DTD/svg11.dtd">
<svg version="1.1" xmlns="http://www.w3.org/2000/svg" xmlns:xlink="http://www.w3.org/1999/xlink" viewBox="0 0 18.3398 17.9785">
 <g>
  <rect height="17.9785" opacity="0" width="18.3398" x="0" y="0"/>
  <path d="M17.9785 3.02734L17.9785 14.9609C17.9785 16.9727 16.9629 17.9785 14.9121 17.9785L3.06641 17.9785C1.02539 17.9785 0 16.9727 0 14.9609L0 3.02734C0 1.01562 1.02539 0 3.06641 0L14.9121 0C16.9629 0 17.9785 1.01562 17.9785 3.02734ZM8.49609 9.08203C8.49609 10.9863 9.10156 13.2617 11.1426 13.2617C12.6758 13.2617 13.5645 11.9727 13.5645 10.3906C13.5645 9.0332 12.9102 7.74414 11.5723 7.74414C10.7617 7.74414 10.1465 8.29102 9.91211 9.15039L9.87305 9.15039C9.87305 9.11133 9.87305 9.07227 9.87305 9.04297C9.87305 7.92969 10.0098 5.9082 11.123 5.9082C11.5918 5.9082 11.8848 6.23047 12.0605 6.65039C12.1973 6.96289 12.3926 7.09961 12.7246 7.09961C13.1348 7.09961 13.3008 6.82617 13.3008 6.49414C13.3008 6.38672 13.291 6.25977 13.252 6.13281C13.0469 5.26367 12.1777 4.72656 11.1523 4.72656C9.0918 4.72656 8.49609 7.04102 8.49609 9.08203ZM5.01953 5.19531L3.91602 6.05469C3.73047 6.19141 3.59375 6.38672 3.59375 6.65039C3.59375 6.96289 3.80859 7.1875 4.11133 7.1875C4.26758 7.1875 4.375 7.13867 4.47266 7.06055L5.39062 6.31836L5.39062 12.4219C5.39062 12.832 5.73242 13.1641 6.14258 13.1641C6.54297 13.1641 6.875 12.832 6.875 12.4219L6.875 5.60547C6.875 5.08789 6.55273 4.78516 6.02539 4.78516C5.5957 4.78516 5.25391 5.01953 5.01953 5.19531ZM12.1582 10.459C12.1582 11.1914 11.8262 12.0801 11.123 12.0801C10.3711 12.0801 10.0586 11.1328 10.0586 10.4102C10.0586 9.67773 10.4004 8.84766 11.123 8.84766C11.8652 8.84766 12.1777 9.7168 12.1582 10.459Z" fill="black" fill-opacity="0.85"/>
 </g>
</svg>
