<?xml version="1.0" encoding="UTF-8"?>
<!--Generator: Apple Native CoreSVG 326-->
<!DOCTYPE svg
PUBLIC "-//W3C//DTD SVG 1.1//EN"
       "http://www.w3.org/Graphics/SVG/1.1/DTD/svg11.dtd">
<svg version="1.1" xmlns="http://www.w3.org/2000/svg" xmlns:xlink="http://www.w3.org/1999/xlink" viewBox="0 0 18.3398 17.9785">
 <g>
  <rect height="17.9785" opacity="0" width="18.3398" x="0" y="0"/>
  <path d="M17.9785 3.02734L17.9785 14.9609C17.9785 16.9727 16.9629 17.9785 14.9121 17.9785L3.06641 17.9785C1.02539 17.9785 0 16.9727 0 14.9609L0 3.02734C0 1.01562 1.02539 0 3.06641 0L14.9121 0C16.9629 0 17.9785 1.01562 17.9785 3.02734ZM8.80859 6.92383C8.80859 7.94922 9.45312 8.55469 10.0977 8.75L10.0977 8.7793C9.23828 8.97461 8.57422 9.76562 8.57422 10.8594C8.57422 12.3535 9.70703 13.2324 11.1914 13.2324C12.7832 13.2324 13.7988 12.2363 13.7988 10.8594C13.7988 9.75586 13.1055 8.96484 12.3047 8.7793L12.3047 8.75C12.9785 8.54492 13.584 7.89062 13.584 6.93359C13.584 5.625 12.6074 4.74609 11.1914 4.74609C9.94141 4.74609 8.80859 5.50781 8.80859 6.92383ZM5.14648 5.19531L4.04297 6.05469C3.86719 6.19141 3.73047 6.38672 3.73047 6.65039C3.73047 6.96289 3.93555 7.1875 4.23828 7.1875C4.4043 7.1875 4.50195 7.13867 4.60938 7.06055L5.52734 6.31836L5.52734 12.4219C5.52734 12.832 5.85938 13.1641 6.26953 13.1641C6.66016 13.1641 7.01172 12.832 7.01172 12.4219L7.01172 5.60547C7.01172 5.08789 6.66992 4.78516 6.16211 4.78516C5.73242 4.78516 5.39062 5.01953 5.14648 5.19531ZM12.2852 10.7422C12.2852 11.4844 11.9238 12.1387 11.1914 12.1387C10.459 12.1387 10.0977 11.4844 10.0977 10.7422C10.0977 10.0195 10.4688 9.375 11.1914 9.375C11.9043 9.375 12.2852 9.98047 12.2852 10.7422ZM12.1582 7.07031C12.1582 7.73438 11.8262 8.29102 11.1914 8.29102C10.5469 8.29102 10.2148 7.66602 10.2148 7.07031C10.2148 6.42578 10.5664 5.83008 11.1914 5.83008C11.8457 5.83008 12.1582 6.42578 12.1582 7.07031Z" fill="black" fill-opacity="0.85"/>
 </g>
</svg>
