<?xml version="1.0" encoding="UTF-8"?>
<!--Generator: Apple Native CoreSVG 232.5-->
<!DOCTYPE svg
PUBLIC "-//W3C//DTD SVG 1.1//EN"
       "http://www.w3.org/Graphics/SVG/1.1/DTD/svg11.dtd">
<svg version="1.1" xmlns="http://www.w3.org/2000/svg" xmlns:xlink="http://www.w3.org/1999/xlink" width="18.3398" height="17.998">
 <g>
  <rect height="17.998" opacity="0" width="18.3398" x="0" y="0"/>
  <path d="M17.9785 3.04688L17.9785 14.9707C17.9785 16.9824 16.9629 17.998 14.9121 17.998L3.06641 17.998C1.02539 17.998 0 16.9922 0 14.9707L0 3.04688C0 1.02539 1.02539 0.0195312 3.06641 0.0195312L14.9121 0.0195312C16.9629 0.0195312 17.9785 1.03516 17.9785 3.04688ZM11.2305 5.79102L9.43359 9.6875C9.26758 10.0781 9.19922 10.3418 9.19922 10.6543C9.19922 11.1426 9.55078 11.4746 10.0391 11.4746L12.2852 11.4746L12.2852 12.4805C12.2852 13.0176 12.666 13.1934 12.9883 13.1934C13.3691 13.1934 13.6816 12.959 13.6816 12.4805L13.6816 11.4746L14.0332 11.4746C14.4238 11.4746 14.6094 11.2207 14.6094 10.8789C14.6094 10.5566 14.4336 10.3027 14.0332 10.3027L13.6816 10.3027L13.6816 5.88867C13.6816 5.19531 13.2227 4.79492 12.5586 4.79492C11.8457 4.79492 11.5137 5.15625 11.2305 5.79102ZM3.59375 6.82617C3.59375 7.20703 3.81836 7.4707 4.19922 7.4707C4.54102 7.4707 4.74609 7.31445 4.85352 6.98242C5.03906 6.30859 5.2832 5.88867 5.86914 5.88867C6.46484 5.88867 6.80664 6.41602 6.80664 7.12891C6.80664 7.93945 6.24023 8.75977 5.71289 9.44336L3.96484 11.6699C3.7793 11.9141 3.58398 12.168 3.58398 12.4805C3.58398 12.8223 3.80859 13.0664 4.27734 13.0664L7.77344 13.0664C8.125 13.0664 8.33984 12.832 8.33984 12.4805C8.33984 12.0898 8.11523 11.8848 7.77344 11.8848L5.38086 11.8848L5.38086 11.7969L6.8457 9.94141C7.85156 8.69141 8.18359 7.94922 8.18359 7.06055C8.18359 5.70312 7.25586 4.7168 5.86914 4.7168C4.58984 4.7168 3.59375 5.78125 3.59375 6.82617ZM12.3145 10.332L10.459 10.332L10.459 10.2637L12.2852 6.06445L12.3145 6.06445Z" fill="#000000" fill-opacity="0.85"/>
 </g>
</svg>
