<?xml version="1.0" encoding="UTF-8"?>
<!--Generator: Apple Native CoreSVG 232.5-->
<!DOCTYPE svg
PUBLIC "-//W3C//DTD SVG 1.1//EN"
       "http://www.w3.org/Graphics/SVG/1.1/DTD/svg11.dtd">
<svg version="1.1" xmlns="http://www.w3.org/2000/svg" xmlns:xlink="http://www.w3.org/1999/xlink" width="18.3398" height="17.998">
 <g>
  <rect height="17.998" opacity="0" width="18.3398" x="0" y="0"/>
  <path d="M17.9785 3.04688L17.9785 14.9707C17.9785 16.9824 16.9629 17.998 14.9121 17.998L3.06641 17.998C1.02539 17.998 0 16.9922 0 14.9707L0 3.04688C0 1.02539 1.02539 0.0195312 3.06641 0.0195312L14.9121 0.0195312C16.9629 0.0195312 17.9785 1.03516 17.9785 3.04688ZM10.2441 4.92188C9.89258 4.92188 9.6582 5.17578 9.6582 5.52734C9.6582 5.86914 9.89258 6.12305 10.2441 6.12305L12.8223 6.12305L12.8223 6.21094L10.6055 11.9824C10.5078 12.207 10.4688 12.334 10.4688 12.5781C10.4688 12.8711 10.6641 13.2031 11.1426 13.2031C11.5137 13.2031 11.6797 13.0566 11.8164 12.6855L14.1113 6.55273C14.2188 6.24023 14.2969 5.99609 14.2969 5.70312C14.2969 5.24414 13.9453 4.92188 13.4961 4.92188ZM4.05273 6.82617C4.05273 7.20703 4.26758 7.4707 4.6582 7.4707C4.99023 7.4707 5.19531 7.31445 5.30273 6.98242C5.49805 6.30859 5.73242 5.88867 6.31836 5.88867C6.91406 5.88867 7.25586 6.41602 7.25586 7.12891C7.25586 7.93945 6.68945 8.75977 6.16211 9.44336L4.41406 11.6699C4.22852 11.9141 4.04297 12.168 4.04297 12.4805C4.04297 12.8223 4.25781 13.0664 4.72656 13.0664L8.22266 13.0664C8.57422 13.0664 8.78906 12.832 8.78906 12.4805C8.78906 12.0898 8.56445 11.8848 8.22266 11.8848L5.83008 11.8848L5.83008 11.7969L7.29492 9.94141C8.30078 8.69141 8.63281 7.94922 8.63281 7.06055C8.63281 5.70312 7.70508 4.7168 6.31836 4.7168C5.0293 4.7168 4.05273 5.78125 4.05273 6.82617Z" fill="#000000" fill-opacity="0.85"/>
 </g>
</svg>
