<?xml version="1.0" encoding="UTF-8"?>
<!--Generator: Apple Native CoreSVG 232.5-->
<!DOCTYPE svg
PUBLIC "-//W3C//DTD SVG 1.1//EN"
       "http://www.w3.org/Graphics/SVG/1.1/DTD/svg11.dtd">
<svg version="1.1" xmlns="http://www.w3.org/2000/svg" xmlns:xlink="http://www.w3.org/1999/xlink" width="18.3398" height="17.998">
 <g>
  <rect height="17.998" opacity="0" width="18.3398" x="0" y="0"/>
  <path d="M17.9785 3.04688L17.9785 14.9707C17.9785 16.9824 16.9629 17.998 14.9121 17.998L3.06641 17.998C1.02539 17.998 0 16.9922 0 14.9707L0 3.04688C0 1.02539 1.02539 0.0195312 3.06641 0.0195312L14.9121 0.0195312C16.9629 0.0195312 17.9785 1.03516 17.9785 3.04688ZM9.48242 8.98438C9.48242 11.0156 10.0781 13.2617 12.0996 13.2617C14.1016 13.2617 14.6973 11.0156 14.6973 8.98438C14.6973 6.95312 14.1016 4.70703 12.0996 4.70703C10.0781 4.70703 9.48242 6.95312 9.48242 8.98438ZM3.59375 6.2207C3.53516 6.41602 3.51562 6.60156 3.51562 6.76758C3.51562 7.08984 3.74023 7.36328 4.14062 7.36328C4.49219 7.36328 4.6875 7.22656 4.78516 6.88477C4.94141 6.28906 5.26367 5.91797 5.83008 5.91797C6.49414 5.91797 6.80664 6.42578 6.80664 7.08984C6.80664 7.82227 6.39648 8.35938 5.64453 8.35938L5.41016 8.35938C5.05859 8.35938 4.85352 8.57422 4.85352 8.89648C4.85352 9.22852 5.06836 9.43359 5.41016 9.43359L5.6543 9.43359C6.51367 9.43359 6.98242 9.89258 6.98242 10.7812C6.98242 11.4648 6.62109 12.0508 5.86914 12.0508C5.14648 12.0508 4.81445 11.5625 4.69727 11.1133C4.58984 10.7812 4.375 10.6152 4.05273 10.6152C3.65234 10.6152 3.38867 10.8496 3.38867 11.25C3.38867 11.4355 3.41797 11.6113 3.4668 11.7773C3.75977 12.7148 4.78516 13.2324 5.86914 13.2324C7.32422 13.2324 8.42773 12.3242 8.42773 10.8203C8.42773 9.57031 7.68555 8.95508 6.82617 8.86719L6.82617 8.82812C7.74414 8.58398 8.18359 7.77344 8.18359 6.93359C8.18359 5.53711 7.14844 4.74609 5.83008 4.74609C4.78516 4.74609 3.88672 5.33203 3.59375 6.2207ZM13.2227 8.98438C13.2227 10.7324 12.9199 12.0605 12.0996 12.0605C11.2793 12.0605 10.9668 10.7324 10.9668 8.98438C10.9668 7.22656 11.2793 5.89844 12.0996 5.89844C12.9199 5.89844 13.2227 7.22656 13.2227 8.98438Z" fill="#000000" fill-opacity="0.85"/>
 </g>
</svg>
