<svg xmlns="http://www.w3.org/2000/svg" height="24px" viewBox="0 -960 960 960" width="24px" fill="#e3e3e3"><path d="M40-240q9-107 65.5-197T256-580l-74-128q-6-9-3-19t13-15q8-5 18-2t16 12l74 128q86-36 180-36t180 36l74-128q6-9 16-12t18 2q10 5 13 15t-3 19l-74 128q94 53 150.5 143T920-240H40Zm275.5-124.5Q330-379 330-400t-14.5-35.5Q301-450 280-450t-35.5 14.5Q230-421 230-400t14.5 35.5Q259-350 280-350t35.5-14.5Zm400 0Q730-379 730-400t-14.5-35.5Q701-450 680-450t-35.5 14.5Q630-421 630-400t14.5 35.5Q659-350 680-350t35.5-14.5Z"/></svg>