<?xml version="1.0" encoding="UTF-8"?>
<!--Generator: Apple Native CoreSVG 341-->
<!DOCTYPE svg
PUBLIC "-//W3C//DTD SVG 1.1//EN"
       "http://www.w3.org/Graphics/SVG/1.1/DTD/svg11.dtd">
<svg version="1.1" xmlns="http://www.w3.org/2000/svg" xmlns:xlink="http://www.w3.org/1999/xlink" viewBox="0 0 96.1426 60.4004">
 <g>
  <rect height="60.4004" opacity="0" width="96.1426" x="0" y="0"/>
  <path d="M96.1426 30.1758C96.1426 28.9551 95.6543 27.832 94.6777 26.9043L68.6035 1.36719C67.7734 0.537109 66.5039 0 65.4297 0C62.8418 0 61.1328 1.80664 61.1328 4.29688C61.1328 5.56641 61.5234 6.54297 62.3047 7.27539L73.7793 18.4082L87.5488 30.1758L73.7793 41.9434L62.3047 53.0273C61.5234 53.8086 61.1328 54.7852 61.1328 56.0059C61.1328 58.5449 62.8418 60.3516 65.4297 60.3516C66.5039 60.3516 67.7734 59.8145 68.6035 58.9844L94.6777 33.4473C95.6543 32.5195 96.1426 31.3965 96.1426 30.1758ZM3.66211 30.1758C3.66211 32.2754 5.37109 33.9844 7.4707 34.0332L24.5605 34.5215L71.582 34.5215L88.6719 34.0332C90.7715 33.9844 92.4805 32.2754 92.4805 30.1758C92.4805 28.0273 90.7715 26.3672 88.6719 26.3184L71.582 25.8301L24.5605 25.8301L7.4707 26.3184C5.37109 26.3672 3.66211 28.0273 3.66211 30.1758ZM0 30.1758C0 31.3965 0.488281 32.5195 1.46484 33.4473L27.5391 58.9844C28.3691 59.8145 29.6387 60.3516 30.7129 60.3516C33.3008 60.3516 35.0098 58.5449 35.0098 56.0059C35.0098 54.7852 34.6191 53.8086 33.8379 53.0273L22.3633 41.9434L8.59375 30.1758L22.3633 18.4082L33.8379 7.27539C34.6191 6.54297 35.0098 5.56641 35.0098 4.29688C35.0098 1.80664 33.3008 0 30.7129 0C29.6387 0 28.3691 0.537109 27.5391 1.36719L1.46484 26.9043C0.488281 27.832 0 28.9551 0 30.1758Z" fill="black" fill-opacity="0.85"/>
 </g>
</svg>
