<?xml version="1.0" encoding="UTF-8"?>
<!--Generator: Apple Native CoreSVG 175.5-->
<!DOCTYPE svg
PUBLIC "-//W3C//DTD SVG 1.1//EN"
       "http://www.w3.org/Graphics/SVG/1.1/DTD/svg11.dtd">
<svg version="1.1" xmlns="http://www.w3.org/2000/svg" xmlns:xlink="http://www.w3.org/1999/xlink" width="22.6685" height="18.5181">
 <g>
  <rect height="18.5181" opacity="0" width="22.6685" x="0" y="0"/>
  <path d="M22.6685 9.25293C22.6685 8.94775 22.5464 8.66699 22.3022 8.43506L14.209 0.366211C13.9404 0.0976562 13.6841 0 13.3911 0C12.793 0 12.3291 0.439453 12.3291 1.0498C12.3291 1.34277 12.4268 1.62354 12.6221 1.81885L15.3564 4.60205L20.2026 9.021L20.4468 8.41064L16.5161 8.1665L1.07422 8.1665C0.439453 8.1665 0 8.61816 0 9.25293C0 9.8877 0.439453 10.3394 1.07422 10.3394L16.5161 10.3394L20.4468 10.0952L20.2026 9.49707L15.3564 13.9038L12.6221 16.687C12.4268 16.8701 12.3291 17.1631 12.3291 17.4561C12.3291 18.0664 12.793 18.5059 13.3911 18.5059C13.6841 18.5059 13.9404 18.396 14.1846 18.1641L22.3022 10.0708C22.5464 9.83887 22.6685 9.55811 22.6685 9.25293Z" fill="#000000" fill-opacity="0.85"/>
 </g>
</svg>
