<?xml version="1.0" encoding="UTF-8"?>
<!--Generator: Apple Native CoreSVG 175.5-->
<!DOCTYPE svg
PUBLIC "-//W3C//DTD SVG 1.1//EN"
       "http://www.w3.org/Graphics/SVG/1.1/DTD/svg11.dtd">
<svg version="1.1" xmlns="http://www.w3.org/2000/svg" xmlns:xlink="http://www.w3.org/1999/xlink" width="22.9126" height="20.52">
 <g>
  <rect height="20.52" opacity="0" width="22.9126" x="0" y="0"/>
  <path d="M1.14746 0C0.500488 0 0.20752 0.415039 0.109863 0.90332C0.0244141 1.28174 0 1.87988 0 2.6001C0 8.5083 2.36816 11.0474 8.1543 11.0474L16.687 11.0474L19.6777 10.8765L15.564 14.624L12.854 17.3828C12.6587 17.5903 12.561 17.8711 12.561 18.1641C12.561 18.7744 13.0249 19.2139 13.6353 19.2139C13.916 19.2139 14.1846 19.104 14.4531 18.8477L22.5342 10.7788C22.7905 10.5347 22.9126 10.2539 22.9126 9.94873C22.9126 9.65576 22.7905 9.36279 22.5342 9.13086L14.4287 1.02539C14.1846 0.793457 13.916 0.695801 13.6353 0.695801C13.0249 0.695801 12.561 1.13525 12.561 1.74561C12.561 2.03857 12.6709 2.31934 12.854 2.51465L15.564 5.27344L19.6899 9.04541L16.687 8.8623L8.26416 8.8623C3.78418 8.8623 2.20947 7.01904 2.20947 2.49023C2.20947 1.9043 2.24609 1.51367 2.24609 1.07422C2.24609 0.439453 1.78223 0 1.14746 0Z" fill="#000000" fill-opacity="0.85"/>
 </g>
</svg>
