<?xml version="1.0" encoding="UTF-8"?>
<!--Generator: Apple Native CoreSVG 175.5-->
<!DOCTYPE svg
PUBLIC "-//W3C//DTD SVG 1.1//EN"
       "http://www.w3.org/Graphics/SVG/1.1/DTD/svg11.dtd">
<svg version="1.1" xmlns="http://www.w3.org/2000/svg" xmlns:xlink="http://www.w3.org/1999/xlink" width="22.6685" height="18.5181">
 <g>
  <rect height="18.5181" opacity="0" width="22.6685" x="0" y="0"/>
  <path d="M0 9.25293C0 9.55811 0.134277 9.83887 0.378418 10.0708L8.48389 18.1641C8.72803 18.396 8.98438 18.5059 9.27734 18.5059C9.87549 18.5059 10.3516 18.0664 10.3516 17.4561C10.3516 17.1631 10.2417 16.8701 10.0464 16.687L7.31201 13.9038L2.47803 9.49707L2.22168 10.0952L6.15234 10.3394L21.5942 10.3394C22.229 10.3394 22.6685 9.8877 22.6685 9.25293C22.6685 8.61816 22.229 8.1665 21.5942 8.1665L6.15234 8.1665L2.22168 8.41064L2.47803 9.021L7.31201 4.60205L10.0464 1.81885C10.2417 1.62354 10.3516 1.34277 10.3516 1.0498C10.3516 0.439453 9.87549 0 9.27734 0C8.98438 0 8.72803 0.0976562 8.45947 0.366211L0.378418 8.43506C0.134277 8.66699 0 8.94775 0 9.25293Z" fill="#000000" fill-opacity="0.85"/>
 </g>
</svg>
