<?xml version="1.0" encoding="UTF-8"?>
<!--Generator: Apple Native CoreSVG 341-->
<!DOCTYPE svg
PUBLIC "-//W3C//DTD SVG 1.1//EN"
       "http://www.w3.org/Graphics/SVG/1.1/DTD/svg11.dtd">
<svg version="1.1" xmlns="http://www.w3.org/2000/svg" xmlns:xlink="http://www.w3.org/1999/xlink" viewBox="0 0 0.563477 0.76416">
 <g>
  <rect height="0.76416" opacity="0" width="0.563477" x="0" y="0"/>
  <path d="M0.239258 0C0.228516 0 0.218262 0.00439453 0.209961 0.0131836L0.012207 0.216309C0.00488281 0.223633 0 0.235352 0 0.245117C0 0.268555 0.0161133 0.283691 0.0390625 0.283691C0.050293 0.283691 0.0585938 0.280273 0.0654297 0.272949L0.146484 0.188965L0.239258 0.0771484L0.33252 0.188965L0.413086 0.272949C0.419922 0.280273 0.428223 0.283691 0.439453 0.283691C0.462402 0.283691 0.478516 0.268555 0.478516 0.245117C0.478516 0.235352 0.474121 0.223633 0.466309 0.216309L0.268555 0.0131836C0.260254 0.00439453 0.25 0 0.239258 0ZM0.239258 0.732422C0.258301 0.732422 0.273438 0.717285 0.273926 0.697754L0.278809 0.553711L0.278809 0.209961L0.273926 0.065918C0.273438 0.0463867 0.258301 0.03125 0.239258 0.03125C0.220215 0.03125 0.205078 0.0463867 0.20459 0.065918L0.199707 0.209961L0.199707 0.553711L0.20459 0.697754C0.205078 0.717285 0.220215 0.732422 0.239258 0.732422ZM0.239258 0.763672C0.25 0.763672 0.260254 0.759277 0.268555 0.750488L0.466309 0.547363C0.474121 0.540039 0.478516 0.52832 0.478516 0.519043C0.478516 0.495605 0.462402 0.47998 0.439453 0.47998C0.428223 0.47998 0.419922 0.483887 0.413086 0.490723L0.33252 0.574707L0.239258 0.686523L0.146484 0.574707L0.0654297 0.490723C0.0585938 0.483887 0.050293 0.47998 0.0390625 0.47998C0.0161133 0.47998 0 0.495605 0 0.519043C0 0.52832 0.00488281 0.540039 0.012207 0.547363L0.209961 0.750488C0.218262 0.759277 0.228516 0.763672 0.239258 0.763672Z" fill="black" fill-opacity="0.85"/>
 </g>
</svg>
