<?xml version="1.0" encoding="UTF-8"?>
<!--Generator: Apple Native CoreSVG 175.5-->
<!DOCTYPE svg
PUBLIC "-//W3C//DTD SVG 1.1//EN"
       "http://www.w3.org/Graphics/SVG/1.1/DTD/svg11.dtd">
<svg version="1.1" xmlns="http://www.w3.org/2000/svg" xmlns:xlink="http://www.w3.org/1999/xlink" width="18.5059" height="23.0591">
 <g>
  <rect height="23.0591" opacity="0" width="18.5059" x="0" y="0"/>
  <path d="M9.25293 0C8.61816 0 8.1665 0.439453 8.1665 1.07422L8.1665 17.1509L8.28857 20.7886L8.97217 20.5444L4.60205 15.7471L1.81885 13.0127C1.63574 12.8174 1.34277 12.7197 1.0498 12.7197C0.439453 12.7197 0 13.1836 0 13.7817C0 14.0747 0.109863 14.3311 0.341797 14.5752L8.43506 22.6929C8.66699 22.937 8.94775 23.0591 9.25293 23.0591C9.55811 23.0591 9.83887 22.937 10.0708 22.6929L18.1763 14.5752C18.4082 14.3311 18.5059 14.0747 18.5059 13.7817C18.5059 13.1836 18.0664 12.7197 17.4561 12.7197C17.1631 12.7197 16.8823 12.8174 16.687 13.0127L13.9038 15.7471L9.52148 20.5444L10.2173 20.7886L10.3394 17.1509L10.3394 1.07422C10.3394 0.439453 9.8877 0 9.25293 0Z" fill="#000000" fill-opacity="0.85"/>
 </g>
</svg>
