<?xml version="1.0" encoding="UTF-8"?>
<!--Generator: Apple Native CoreSVG 341-->
<!DOCTYPE svg
PUBLIC "-//W3C//DTD SVG 1.1//EN"
       "http://www.w3.org/Graphics/SVG/1.1/DTD/svg11.dtd">
<svg version="1.1" xmlns="http://www.w3.org/2000/svg" xmlns:xlink="http://www.w3.org/1999/xlink" viewBox="0 0 0.848145 0.479004">
 <g>
  <rect height="0.479004" opacity="0" width="0.848145" x="0" y="0"/>
  <path d="M0.763184 0.239258C0.763184 0.228516 0.759277 0.218262 0.750488 0.209961L0.547363 0.012207C0.539551 0.00488281 0.527832 0 0.518555 0C0.495117 0 0.479492 0.0161133 0.479492 0.0390625C0.479492 0.050293 0.483398 0.0585938 0.490723 0.0654297L0.574219 0.146484L0.686523 0.239258L0.574219 0.332031L0.490723 0.413086C0.483398 0.419922 0.479492 0.428223 0.479492 0.439453C0.479492 0.462402 0.495117 0.478516 0.518555 0.478516C0.527832 0.478516 0.539551 0.473633 0.547363 0.466309L0.750488 0.268555C0.759277 0.260254 0.763184 0.25 0.763184 0.239258ZM0.0307617 0.239258C0.0307617 0.258301 0.0463867 0.273438 0.0654297 0.273926L0.209961 0.278809L0.553711 0.278809L0.697754 0.273926C0.716797 0.273438 0.732422 0.258301 0.732422 0.239258C0.732422 0.220215 0.716797 0.205078 0.697754 0.20459L0.553711 0.199707L0.209961 0.199707L0.0654297 0.20459C0.0463867 0.205078 0.0307617 0.220215 0.0307617 0.239258ZM0 0.239258C0 0.25 0.00439453 0.260254 0.0131836 0.268555L0.216309 0.466309C0.223633 0.473633 0.235352 0.478516 0.244629 0.478516C0.268066 0.478516 0.283691 0.462402 0.283691 0.439453C0.283691 0.428223 0.279785 0.419922 0.272949 0.413086L0.188965 0.332031L0.0771484 0.239258L0.188965 0.146484L0.272949 0.0654297C0.279785 0.0585938 0.283691 0.050293 0.283691 0.0390625C0.283691 0.0161133 0.268066 0 0.244629 0C0.235352 0 0.223633 0.00488281 0.216309 0.012207L0.0131836 0.209961C0.00439453 0.218262 0 0.228516 0 0.239258Z" fill="black" fill-opacity="0.85"/>
 </g>
</svg>
