<?xml version="1.0" encoding="UTF-8"?>
<!--Generator: Apple Native CoreSVG 175.5-->
<!DOCTYPE svg
PUBLIC "-//W3C//DTD SVG 1.1//EN"
       "http://www.w3.org/Graphics/SVG/1.1/DTD/svg11.dtd">
<svg version="1.1" xmlns="http://www.w3.org/2000/svg" xmlns:xlink="http://www.w3.org/1999/xlink" width="18.5059" height="25.3052">
 <g>
  <rect height="25.3052" opacity="0" width="18.5059" x="0" y="0"/>
  <path d="M18.5059 13.8428C18.5059 13.2446 18.0664 12.7808 17.4561 12.7808C17.1631 12.7808 16.8823 12.8784 16.687 13.0737L13.9038 15.8081L9.53369 20.6055L10.2173 20.8496L10.3394 17.2119L10.3394 1.12305C10.3394 0.500488 9.8877 0.0488281 9.25293 0.0488281C8.61816 0.0488281 8.1665 0.500488 8.1665 1.12305L8.1665 17.2119L8.28857 20.8496L8.98438 20.6055L4.60205 15.8081L1.81885 13.0737C1.63574 12.8784 1.34277 12.7808 1.0498 12.7808C0.439453 12.7808 0 13.2446 0 13.8428C0 14.1357 0.109863 14.3921 0.341797 14.6362L8.43506 22.7539C8.66699 22.998 8.94775 23.1201 9.25293 23.1201C9.55811 23.1201 9.83887 22.998 10.0708 22.7539L18.1763 14.6362C18.4082 14.3921 18.5059 14.1357 18.5059 13.8428ZM18.5059 24.2065C18.5059 23.5718 18.0786 23.1201 17.4561 23.1201L1.07422 23.1201C0.439453 23.1201 0 23.5718 0 24.2065C0 24.8413 0.439453 25.3052 1.07422 25.3052L17.4561 25.3052C18.0786 25.3052 18.5059 24.8413 18.5059 24.2065Z" fill="#000000" fill-opacity="0.85"/>
 </g>
</svg>
