<?xml version="1.0" encoding="UTF-8"?>
<!--Generator: Apple Native CoreSVG 175.5-->
<!DOCTYPE svg
PUBLIC "-//W3C//DTD SVG 1.1//EN"
       "http://www.w3.org/Graphics/SVG/1.1/DTD/svg11.dtd">
<svg version="1.1" xmlns="http://www.w3.org/2000/svg" xmlns:xlink="http://www.w3.org/1999/xlink" width="25.2563" height="18.9819">
 <g>
  <rect height="18.9819" opacity="0" width="25.2563" x="0" y="0"/>
  <path d="M13.7939 18.5059C14.0869 18.5059 14.3433 18.4082 14.5874 18.1763L22.7051 10.0708C22.9492 9.83887 23.0713 9.55811 23.0713 9.25293C23.0713 8.95996 22.9492 8.6792 22.7051 8.43506L14.5874 0.341797C14.3433 0.109863 14.0869 0 13.7939 0C13.1958 0 12.7319 0.45166 12.7319 1.0498C12.7319 1.34277 12.8296 1.63574 13.0249 1.83105L15.7593 4.60205L20.5566 8.98438L20.8008 8.30078L17.1631 8.1665L1.07422 8.1665C0.439453 8.1665 0 8.61816 0 9.25293C0 9.8877 0.439453 10.3516 1.07422 10.3516L17.1631 10.3516L20.8008 10.2173L20.5566 9.5459L15.7593 13.9038L13.0249 16.687C12.8296 16.8823 12.7319 17.1753 12.7319 17.4561C12.7319 18.0664 13.1958 18.5059 13.7939 18.5059ZM24.1577 18.5059C24.7925 18.5059 25.2563 18.0786 25.2563 17.4561L25.2563 1.08643C25.2563 0.45166 24.7925 0 24.1577 0C23.5229 0 23.0713 0.45166 23.0713 1.08643L23.0713 17.4561C23.0713 18.0786 23.5229 18.5059 24.1577 18.5059Z" fill="#000000" fill-opacity="0.85"/>
 </g>
</svg>
