<?xml version="1.0" encoding="UTF-8"?>
<!--Generator: Apple Native CoreSVG 341-->
<!DOCTYPE svg
PUBLIC "-//W3C//DTD SVG 1.1//EN"
       "http://www.w3.org/Graphics/SVG/1.1/DTD/svg11.dtd">
<svg version="1.1" xmlns="http://www.w3.org/2000/svg" xmlns:xlink="http://www.w3.org/1999/xlink" viewBox="0 0 60.3027 96.1426">
 <g>
  <rect height="96.1426" opacity="0" width="60.3027" x="0" y="0"/>
  <path d="M30.1758 0C28.9551 0 27.832 0.439453 26.9043 1.41602L1.36719 27.4902C0.537109 28.3203 0 29.6387 0 30.6641C0 33.3008 1.75781 35.0098 4.29688 35.0098C5.56641 35.0098 6.54297 34.5703 7.27539 33.7891L18.4082 22.3633L30.1758 8.54492L41.9434 22.3633L53.0273 33.7891C53.8086 34.5703 54.7852 35.0098 56.0059 35.0098C58.5449 35.0098 60.3027 33.3008 60.3027 30.6641C60.3027 29.6387 59.8145 28.3203 58.9844 27.4902L33.4473 1.41602C32.4707 0.439453 31.3477 0 30.1758 0ZM30.1758 92.4805C32.2754 92.4805 33.9355 90.7715 33.9844 88.623L34.5215 71.5332L34.5215 24.5605L33.9844 7.4707C33.9355 5.32227 32.2754 3.61328 30.1758 3.61328C28.0273 3.61328 26.3672 5.32227 26.3184 7.4707L25.8301 24.5605L25.8301 71.5332L26.3184 88.623C26.3672 90.7715 28.0273 92.4805 30.1758 92.4805ZM30.1758 96.1426C31.3477 96.1426 32.4707 95.6543 33.4473 94.6777L58.9844 68.6035C59.8145 67.7734 60.3027 66.5039 60.3027 65.4297C60.3027 62.8418 58.5449 61.1328 56.0059 61.1328C54.7852 61.1328 53.8086 61.5234 53.0273 62.3047L41.9434 73.7305L30.1758 87.5488L18.4082 73.7305L7.27539 62.3047C6.54297 61.5234 5.56641 61.1328 4.29688 61.1328C1.75781 61.1328 0 62.8418 0 65.4297C0 66.5039 0.537109 67.7734 1.36719 68.6035L26.9043 94.6777C27.832 95.6543 28.9551 96.1426 30.1758 96.1426Z" fill="black" fill-opacity="0.85"/>
 </g>
</svg>
