<?xml version="1.0" encoding="UTF-8"?>
<!--Generator: Apple Native CoreSVG 232.5-->
<!DOCTYPE svg
PUBLIC "-//W3C//DTD SVG 1.1//EN"
       "http://www.w3.org/Graphics/SVG/1.1/DTD/svg11.dtd">
<svg version="1.1" xmlns="http://www.w3.org/2000/svg" xmlns:xlink="http://www.w3.org/1999/xlink" width="20.2832" height="19.9316">
 <g>
  <rect height="19.9316" opacity="0" width="20.2832" x="0" y="0"/>
  <path d="M19.9219 9.96094C19.9219 15.4004 15.4102 19.9219 9.96094 19.9219C4.52148 19.9219 0 15.4004 0 9.96094C0 4.51172 4.51172 0 9.95117 0C15.4004 0 19.9219 4.51172 19.9219 9.96094ZM7.55859 5.26367C6.99219 5.26367 6.65039 5.5957 6.65039 6.17188L6.65039 13.5742C6.65039 14.1309 6.99219 14.4727 7.55859 14.4727L10.498 14.4727C12.5781 14.4727 13.9258 13.4668 13.9258 11.8848C13.9258 10.6543 13.0957 9.79492 11.7578 9.62891L11.7578 9.57031C12.7539 9.32617 13.3691 8.54492 13.3691 7.53906C13.3691 6.15234 12.2461 5.26367 10.5176 5.26367ZM12.3047 11.8164C12.3047 12.8223 11.5332 13.2812 9.85352 13.2812L8.22266 13.2812L8.22266 10.293L10.3613 10.293C11.5918 10.293 12.3047 10.8496 12.3047 11.8164ZM11.8164 7.79297C11.8164 8.67188 11.084 9.17969 9.73633 9.17969L8.22266 9.17969L8.22266 6.45508L10.1953 6.45508C11.2109 6.45508 11.8164 6.96289 11.8164 7.79297Z" fill="#0000ff" fill-opacity="0.85"/>
 </g>
</svg>
