<?xml version="1.0" encoding="UTF-8"?>
<!--Generator: Apple Native CoreSVG 175.5-->
<!DOCTYPE svg
PUBLIC "-//W3C//DTD SVG 1.1//EN"
       "http://www.w3.org/Graphics/SVG/1.1/DTD/svg11.dtd">
<svg version="1.1" xmlns="http://www.w3.org/2000/svg" xmlns:xlink="http://www.w3.org/1999/xlink" width="22.7661" height="20.1782">
 <g>
  <rect height="20.1782" opacity="0" width="22.7661" x="0" y="0"/>
  <path d="M15.0757 19.6899C16.0278 19.6899 16.8335 18.9575 16.8335 17.5903L16.8335 2.6001C16.8335 1.23291 16.0278 0.500488 15.0757 0.500488C14.5752 0.500488 14.1724 0.65918 13.6719 0.952148L1.23291 8.27637C0.366211 8.78906 0 9.39941 0 10.0952C0 10.791 0.366211 11.4014 1.23291 11.9141L13.6719 19.2383C14.1724 19.5312 14.5752 19.6899 15.0757 19.6899ZM14.5386 17.4316C14.4653 17.4316 14.3677 17.395 14.2456 17.3218L2.63672 10.437C2.46582 10.3394 2.38037 10.2539 2.38037 10.0952C2.38037 9.92432 2.46582 9.85107 2.63672 9.75342L14.2456 2.86865C14.3677 2.79541 14.4653 2.75879 14.5386 2.75879C14.7217 2.75879 14.8804 2.88086 14.8804 3.125L14.8804 17.0654C14.8804 17.3096 14.7217 17.4316 14.5386 17.4316ZM21.7163 20.1782C22.29 20.1782 22.7661 19.7388 22.7661 19.165L22.7661 1.0376C22.7661 0.463867 22.29 0.012207 21.7163 0.012207C21.1426 0.012207 20.6787 0.463867 20.6787 1.0376L20.6787 19.165C20.6787 19.7388 21.1426 20.1782 21.7163 20.1782Z" fill="#000000" fill-opacity="0.85"/>
 </g>
</svg>
