<?xml version="1.0" encoding="UTF-8"?>
<!--Generator: Apple Native CoreSVG 175.5-->
<!DOCTYPE svg
PUBLIC "-//W3C//DTD SVG 1.1//EN"
       "http://www.w3.org/Graphics/SVG/1.1/DTD/svg11.dtd">
<svg version="1.1" xmlns="http://www.w3.org/2000/svg" xmlns:xlink="http://www.w3.org/1999/xlink" width="23.0225" height="4.89502">
 <g>
  <rect height="4.89502" opacity="0" width="23.0225" x="0" y="0"/>
  <path d="M2.44141 4.89502C3.8208 4.89502 4.91943 3.80859 4.91943 2.45361C4.91943 1.09863 3.8208 0.012207 2.44141 0.012207C1.09863 0.012207 0 1.09863 0 2.45361C0 3.80859 1.09863 4.89502 2.44141 4.89502Z" fill="#000000" fill-opacity="0.85"/>
  <path d="M11.5112 4.89502C12.8662 4.89502 13.9526 3.80859 13.9526 2.45361C13.9526 1.09863 12.8662 0.012207 11.5112 0.012207C10.1685 0.012207 9.08203 1.09863 9.08203 2.45361C9.08203 3.80859 10.1685 4.89502 11.5112 4.89502Z" fill="#000000" fill-opacity="0.85"/>
  <path d="M20.5811 4.89502C21.936 4.89502 23.0225 3.80859 23.0225 2.45361C23.0225 1.09863 21.936 0.012207 20.5811 0.012207C19.2017 0.012207 18.1152 1.09863 18.1152 2.45361C18.1152 3.80859 19.2017 4.89502 20.5811 4.89502Z" fill="#000000" fill-opacity="0.85"/>
 </g>
</svg>
