<?xml version="1.0" encoding="UTF-8"?>
<!--Generator: Apple Native CoreSVG 232.5-->
<!DOCTYPE svg
PUBLIC "-//W3C//DTD SVG 1.1//EN"
       "http://www.w3.org/Graphics/SVG/1.1/DTD/svg11.dtd">
<svg version="1.1" xmlns="http://www.w3.org/2000/svg" xmlns:xlink="http://www.w3.org/1999/xlink" width="21.8848" height="21.4551">
 <g>
  <rect height="21.4551" opacity="0" width="21.8848" x="0" y="0"/>
  <path d="M6.00586 21.4551C6.48438 21.4551 6.81641 21.2012 7.41211 20.6738L10.7812 17.6758L17.0508 17.6758C19.9609 17.6758 21.5234 16.0645 21.5234 13.2031L21.5234 5.72266C21.5234 2.86133 19.9609 1.25 17.0508 1.25L4.47266 1.25C1.5625 1.25 0 2.85156 0 5.72266L0 13.2031C0 16.0742 1.5625 17.6758 4.47266 17.6758L4.94141 17.6758L4.94141 20.2148C4.94141 20.9668 5.32227 21.4551 6.00586 21.4551ZM6.40625 19.668L6.40625 16.8359C6.40625 16.3086 6.20117 16.1035 5.67383 16.1035L4.47266 16.1035C2.5 16.1035 1.57227 15.0977 1.57227 13.1934L1.57227 5.72266C1.57227 3.81836 2.5 2.82227 4.47266 2.82227L17.0508 2.82227C19.0137 2.82227 19.9512 3.81836 19.9512 5.72266L19.9512 13.1934C19.9512 15.0977 19.0137 16.1035 17.0508 16.1035L10.7227 16.1035C10.1758 16.1035 9.90234 16.1816 9.53125 16.5625Z" fill="#000000" fill-opacity="0.85"/>
  <path d="M10.7617 11.2207C11.2305 11.2207 11.5039 10.957 11.5137 10.4492L11.6504 5.29297C11.6602 4.80469 11.2695 4.42383 10.752 4.42383C10.2246 4.42383 9.85352 4.79492 9.86328 5.2832L9.99023 10.4492C10 10.9473 10.2734 11.2207 10.7617 11.2207ZM10.7617 14.3945C11.3281 14.3945 11.8164 13.9551 11.8164 13.3789C11.8164 12.8125 11.3379 12.373 10.7617 12.373C10.1855 12.373 9.70703 12.8223 9.70703 13.3789C9.70703 13.9453 10.1953 14.3945 10.7617 14.3945Z" fill="#000000" fill-opacity="0.85"/>
 </g>
</svg>
