<?xml version="1.0" encoding="UTF-8"?>
<!--Generator: Apple Native CoreSVG 175.5-->
<!DOCTYPE svg
PUBLIC "-//W3C//DTD SVG 1.1//EN"
       "http://www.w3.org/Graphics/SVG/1.1/DTD/svg11.dtd">
<svg version="1.1" xmlns="http://www.w3.org/2000/svg" xmlns:xlink="http://www.w3.org/1999/xlink" width="29.8549" height="24.9146">
 <g>
  <rect height="24.9146" opacity="0" width="29.8549" x="0" y="0"/>
  <path d="M0.245788 12.4878C-0.230287 13.1592-0.01056 13.7573 0.868346 13.7573L2.55292 13.7573C3.2121 19.9707 8.57098 24.9023 14.9308 24.9023C18.654 24.9023 22.0231 23.2056 24.3181 20.5688C24.7697 20.0439 24.7087 19.3848 24.2326 19.043C23.7565 18.7012 23.1706 18.8232 22.78 19.2749C20.8879 21.46 18.0803 22.8271 14.9308 22.8271C9.60858 22.8271 5.27508 18.8843 4.65253 13.7573L6.47137 13.7573C7.33807 13.7573 7.5578 13.1592 7.09393 12.5L4.35956 8.60596C3.96893 8.04443 3.38299 8.03223 2.98016 8.60596ZM5.55585 4.3335C5.09198 4.8584 5.15301 5.50537 5.6413 5.84717C6.11737 6.18896 6.6911 6.0791 7.09393 5.62744C8.99823 3.45459 11.8058 2.0752 14.9308 2.0752C20.2409 2.0752 24.5744 6.01807 25.2092 11.1572L23.3903 11.1572C22.5236 11.1572 22.3039 11.7432 22.7678 12.4146L25.5021 16.3086C25.8928 16.8701 26.4787 16.8823 26.8815 16.3086L29.6037 12.4268C30.092 11.7432 29.86 11.1572 28.9811 11.1572L27.3088 11.1572C26.6374 4.94385 21.2907 0 14.9308 0C11.2077 0 7.85077 1.68457 5.55585 4.3335Z" fill="#000000" fill-opacity="0.85"/>
  <path d="M14.9308 14.6484C15.5168 14.6484 15.8586 14.3188 15.8708 13.6841L16.0417 7.23877C16.0539 6.61621 15.5656 6.15234 14.9186 6.15234C14.2595 6.15234 13.7956 6.604 13.8078 7.22656L13.9787 13.6841C13.9909 14.3066 14.3205 14.6484 14.9308 14.6484ZM14.9308 18.6157C15.6389 18.6157 16.2492 18.0542 16.2492 17.3462C16.2492 16.6382 15.6511 16.0767 14.9308 16.0767C14.2106 16.0767 13.6125 16.6504 13.6125 17.3462C13.6125 18.042 14.2228 18.6157 14.9308 18.6157Z" fill="#000000" fill-opacity="0.85"/>
 </g>
</svg>
