<?xml version="1.0" encoding="UTF-8"?>
<!--Generator: Apple Native CoreSVG 232.5-->
<!DOCTYPE svg
PUBLIC "-//W3C//DTD SVG 1.1//EN"
       "http://www.w3.org/Graphics/SVG/1.1/DTD/svg11.dtd">
<svg version="1.1" xmlns="http://www.w3.org/2000/svg" xmlns:xlink="http://www.w3.org/1999/xlink" width="20.8301" height="18.6621">
 <g>
  <rect height="18.6621" opacity="0" width="20.8301" x="0" y="0"/>
  <path d="M12.5098 1.33789L20.0879 14.541C20.332 14.9707 20.4688 15.4492 20.4688 15.9082C20.4688 17.4023 19.4629 18.5547 17.8027 18.5547L2.66602 18.5547C1.00586 18.5547 0 17.4023 0 15.9082C0 15.4492 0.117188 14.9805 0.380859 14.541L7.95898 1.33789C8.45703 0.449219 9.33594 0 10.2344 0C11.1328 0 12.002 0.449219 12.5098 1.33789ZM9.15039 14.2578C9.15039 14.834 9.6582 15.3027 10.2441 15.3027C10.8203 15.3027 11.3281 14.8438 11.3281 14.2578C11.3281 13.6621 10.8301 13.2031 10.2441 13.2031C9.64844 13.2031 9.15039 13.6719 9.15039 14.2578ZM9.31641 5.9082L9.44336 11.2207C9.45312 11.7383 9.73633 12.0312 10.2441 12.0312C10.7227 12.0312 11.0059 11.748 11.0156 11.2207L11.1621 5.91797C11.1719 5.40039 10.7617 5.01953 10.2344 5.01953C9.6875 5.01953 9.30664 5.39062 9.31641 5.9082Z" fill="#000000" fill-opacity="0.85"/>
 </g>
</svg>
