<?xml version="1.0" encoding="UTF-8"?>
<!--Generator: Apple Native CoreSVG 175.5-->
<!DOCTYPE svg
PUBLIC "-//W3C//DTD SVG 1.1//EN"
       "http://www.w3.org/Graphics/SVG/1.1/DTD/svg11.dtd">
<svg version="1.1" xmlns="http://www.w3.org/2000/svg" xmlns:xlink="http://www.w3.org/1999/xlink" width="33.3618" height="22.8516">
 <g>
  <rect height="22.8516" opacity="0" width="33.3618" x="0" y="0"/>
  <path d="M16.687 21.8933C18.9575 21.8933 21.0327 21.4905 22.9248 20.8435L21.3257 19.2444C19.873 19.696 18.335 19.9646 16.687 19.9646C8.64258 19.9646 2.13623 13.1531 2.13623 11.4319C2.13623 10.5774 4.39453 7.73315 7.99561 5.57251L6.48193 4.05884C2.41699 6.57349 0 9.95483 0 11.4319C0 13.9221 6.9458 21.8933 16.687 21.8933ZM16.687 0.970459C14.563 0.970459 12.6343 1.33667 10.8398 1.93481L12.4512 3.53394C13.7939 3.1311 15.1733 2.89917 16.687 2.89917C24.7192 2.89917 31.2256 9.97925 31.2256 11.4319C31.2256 12.4207 29.0894 15.0818 25.708 17.157L27.2095 18.6584C31.0669 16.156 33.3618 12.8723 33.3618 11.4319C33.3618 8.92944 26.5503 0.970459 16.687 0.970459ZM16.687 18.2678C17.7612 18.2678 18.7744 17.9993 19.6777 17.5598L10.5225 8.40454C10.0708 9.30786 9.81445 10.3333 9.81445 11.4319C9.82666 15.155 12.8662 18.2678 16.687 18.2678ZM22.9492 14.1052C23.3276 13.2874 23.5352 12.3718 23.5352 11.4319C23.5352 7.61108 20.4834 4.59595 16.687 4.59595C15.7227 4.59595 14.8193 4.80347 14.0015 5.15747Z" fill="#000000" fill-opacity="0.85"/>
  <path d="M26.1841 22.0032C26.5503 22.3816 27.1362 22.406 27.5146 22.0032C27.9175 21.6003 27.8809 21.051 27.5146 20.6726L7.10449 0.274658C6.73828-0.0915527 6.14014-0.0915527 5.76172 0.274658C5.40771 0.628662 5.40771 1.25122 5.76172 1.60522Z" fill="#000000" fill-opacity="0.85"/>
 </g>
</svg>
