<?xml version="1.0" encoding="UTF-8"?>
<!--Generator: Apple Native CoreSVG 175.5-->
<!DOCTYPE svg
PUBLIC "-//W3C//DTD SVG 1.1//EN"
       "http://www.w3.org/Graphics/SVG/1.1/DTD/svg11.dtd">
<svg version="1.1" xmlns="http://www.w3.org/2000/svg" xmlns:xlink="http://www.w3.org/1999/xlink" width="33.3618" height="20.9351">
 <g>
  <rect height="20.9351" opacity="0" width="33.3618" x="0" y="0"/>
  <path d="M16.687 20.9351C26.5503 20.9351 33.3618 12.9639 33.3618 10.4736C33.3618 7.97119 26.5381 0.012207 16.687 0.012207C6.95801 0.012207 0 7.97119 0 10.4736C0 12.9639 6.9458 20.9351 16.687 20.9351ZM16.687 19.0063C8.64258 19.0063 2.13623 12.1948 2.13623 10.4736C2.13623 9.021 8.64258 1.94092 16.687 1.94092C24.6948 1.94092 31.2256 9.021 31.2256 10.4736C31.2256 12.1948 24.6948 19.0063 16.687 19.0063ZM16.687 17.3096C20.4834 17.3096 23.5352 14.1968 23.5352 10.4736C23.5352 6.65283 20.4834 3.6377 16.687 3.6377C12.8662 3.6377 9.80225 6.65283 9.81445 10.4736C9.83887 14.1968 12.8662 17.3096 16.687 17.3096ZM16.687 12.7441C15.4175 12.7441 14.3921 11.7188 14.3921 10.4736C14.3921 9.21631 15.4175 8.20312 16.687 8.20312C17.9443 8.20312 18.9697 9.21631 18.9697 10.4736C18.9697 11.7188 17.9443 12.7441 16.687 12.7441Z" fill="#000000" fill-opacity="0.85"/>
 </g>
</svg>
