<?xml version="1.0" encoding="UTF-8"?>
<!--Generator: Apple Native CoreSVG 175.5-->
<!DOCTYPE svg
PUBLIC "-//W3C//DTD SVG 1.1//EN"
       "http://www.w3.org/Graphics/SVG/1.1/DTD/svg11.dtd">
<svg version="1.1" xmlns="http://www.w3.org/2000/svg" xmlns:xlink="http://www.w3.org/1999/xlink" width="22.7661" height="20.1782">
 <g>
  <rect height="20.1782" opacity="0" width="22.7661" x="0" y="0"/>
  <path d="M1.0376 20.1782C1.61133 20.1782 2.0874 19.7388 2.0874 19.165L2.0874 1.0376C2.0874 0.463867 1.61133 0.012207 1.0376 0.012207C0.463867 0.012207 0 0.463867 0 1.0376L0 19.165C0 19.7388 0.463867 20.1782 1.0376 20.1782ZM7.67822 19.6899C8.17871 19.6899 8.59375 19.5312 9.09424 19.2383L21.5332 11.9141C22.3877 11.4014 22.7661 10.791 22.7661 10.0952C22.7661 9.39941 22.3999 8.78906 21.5332 8.27637L9.09424 0.952148C8.59375 0.65918 8.17871 0.500488 7.67822 0.500488C6.72607 0.500488 5.92041 1.23291 5.92041 2.6001L5.92041 17.5903C5.92041 18.9575 6.72607 19.6899 7.67822 19.6899ZM8.21533 17.4316C8.04443 17.4316 7.88574 17.3096 7.88574 17.0654L7.88574 3.125C7.88574 2.88086 8.04443 2.75879 8.21533 2.75879C8.30078 2.75879 8.39844 2.79541 8.52051 2.86865L20.1172 9.75342C20.2881 9.85107 20.3857 9.92432 20.3857 10.0952C20.3857 10.2539 20.2881 10.3394 20.1172 10.437L8.52051 17.3218C8.39844 17.395 8.30078 17.4316 8.21533 17.4316Z" fill="#000000" fill-opacity="0.85"/>
 </g>
</svg>
