<?xml version="1.0" encoding="UTF-8"?>
<!--Generator: Apple Native CoreSVG 175.5-->
<!DOCTYPE svg
PUBLIC "-//W3C//DTD SVG 1.1//EN"
       "http://www.w3.org/Graphics/SVG/1.1/DTD/svg11.dtd">
<svg version="1.1" xmlns="http://www.w3.org/2000/svg" xmlns:xlink="http://www.w3.org/1999/xlink" width="24.9023" height="24.9146">
 <g>
  <rect height="24.9146" opacity="0" width="24.9023" x="0" y="0"/>
  <path d="M12.4512 24.9023C19.2627 24.9023 24.9023 19.2505 24.9023 12.4512C24.9023 5.63965 19.2505 0 12.439 0C5.63965 0 0 5.63965 0 12.4512C0 19.2505 5.65186 24.9023 12.4512 24.9023ZM12.4512 22.8271C6.68945 22.8271 2.0874 18.2129 2.0874 12.4512C2.0874 6.68945 6.67725 2.0752 12.439 2.0752C18.2007 2.0752 22.8271 6.68945 22.8271 12.4512C22.8271 18.2129 18.2129 22.8271 12.4512 22.8271Z" fill="#000000" fill-opacity="0.85"/>
  <path d="M14.1235 16.9434C14.3555 16.9434 14.5508 16.8701 14.7827 16.7358L20.6055 13.3057C20.9961 13.0737 21.1792 12.7808 21.1792 12.4634C21.1792 12.146 20.9961 11.853 20.6055 11.6211L14.7827 8.19092C14.5508 8.05664 14.3555 7.9834 14.1235 7.9834C13.6841 7.9834 13.3057 8.3252 13.3057 8.94775L13.3057 15.979C13.3057 16.6016 13.6841 16.9434 14.1235 16.9434ZM6.28662 16.9434C6.51855 16.9434 6.72607 16.8701 6.9458 16.7358L12.7686 13.3057C13.1714 13.0737 13.3423 12.7808 13.3423 12.4634C13.3423 12.146 13.1714 11.853 12.7686 11.6211L6.9458 8.19092C6.72607 8.05664 6.51855 7.9834 6.28662 7.9834C5.84717 7.9834 5.48096 8.3252 5.48096 8.94775L5.48096 15.979C5.48096 16.6016 5.84717 16.9434 6.28662 16.9434Z" fill="#000000" fill-opacity="0.85"/>
 </g>
</svg>
