<?xml version="1.0" encoding="UTF-8"?>
<!--Generator: Apple Native CoreSVG 175.5-->
<!DOCTYPE svg
PUBLIC "-//W3C//DTD SVG 1.1//EN"
       "http://www.w3.org/Graphics/SVG/1.1/DTD/svg11.dtd">
<svg version="1.1" xmlns="http://www.w3.org/2000/svg" xmlns:xlink="http://www.w3.org/1999/xlink" width="24.9023" height="29.6485">
 <g>
  <rect height="29.6485" opacity="0" width="24.9023" x="0" y="0"/>
  <path d="M0 14.8181C0 21.6297 5.65186 27.2693 12.4512 27.2693C19.2627 27.2693 24.9023 21.6297 24.9023 14.8181C24.9023 8.81228 20.52 3.72195 14.8071 2.5989L14.8071 0.865506C14.8071-0.0011928 14.209-0.233126 13.5498 0.242948L9.65576 2.96512C9.09424 3.35574 9.08203 3.94168 9.65576 4.34451L13.5376 7.07889C14.209 7.56717 14.8071 7.33523 14.8071 6.45633L14.8071 4.72293C19.4214 5.77273 22.8149 9.8743 22.8149 14.8181C22.8149 20.5799 18.2129 25.1941 12.4512 25.1941C6.68945 25.1941 2.06299 20.5799 2.0752 14.8181C2.0874 11.3513 3.77197 8.28738 6.37207 6.43191C6.87256 6.05349 7.03125 5.47976 6.72607 4.96707C6.4209 4.46658 5.74951 4.3323 5.2124 4.74734C2.0752 7.03006 0 10.7166 0 14.8181Z" fill="#000000" fill-opacity="0.85"/>
  <path d="M12.3291 19.9695C14.3555 19.9695 15.686 18.6634 15.686 16.698C15.686 14.9036 14.4775 13.6219 12.7319 13.6219C11.9629 13.6219 11.1206 14.0003 10.8032 14.6228L10.8643 14.6228L11.084 11.864L14.7339 11.864C15.1001 11.864 15.4053 11.5711 15.4053 11.156C15.4053 10.741 15.1001 10.4724 14.7339 10.4724L10.8276 10.4724C10.1929 10.4724 9.83887 10.8387 9.79004 11.4856L9.52148 15.0012C9.47266 15.6116 9.79004 15.9046 10.3149 15.9046C10.7178 15.9046 10.9009 15.8313 11.2427 15.5628C11.7188 15.1355 12.085 14.9646 12.5732 14.9646C13.5254 14.9646 14.1602 15.6604 14.1602 16.7224C14.1602 17.7967 13.4033 18.5779 12.4023 18.5779C11.6699 18.5779 11.0596 18.1629 10.7422 17.5281C10.5591 17.2107 10.3394 17.0398 10.0342 17.0398C9.63135 17.0398 9.35059 17.3328 9.35059 17.7478C9.35059 17.9187 9.38721 18.0774 9.44824 18.2361C9.77783 19.115 10.8521 19.9695 12.3291 19.9695Z" fill="#000000" fill-opacity="0.85"/>
 </g>
</svg>
