<?xml version="1.0" encoding="UTF-8"?>
<!--Generator: Apple Native CoreSVG 175.5-->
<!DOCTYPE svg
PUBLIC "-//W3C//DTD SVG 1.1//EN"
       "http://www.w3.org/Graphics/SVG/1.1/DTD/svg11.dtd">
<svg version="1.1" xmlns="http://www.w3.org/2000/svg" xmlns:xlink="http://www.w3.org/1999/xlink" width="24.9023" height="29.6485">
 <g>
  <rect height="29.6485" opacity="0" width="24.9023" x="0" y="0"/>
  <path d="M0 14.8181C0 21.6297 5.65186 27.2693 12.4512 27.2693C19.2627 27.2693 24.9023 21.6297 24.9023 14.8181C24.9023 8.81228 20.52 3.72195 14.8071 2.5989L14.8071 0.865506C14.8071-0.0011928 14.209-0.233126 13.5498 0.242948L9.65576 2.96512C9.09424 3.35574 9.08203 3.94168 9.65576 4.34451L13.5376 7.07889C14.209 7.56717 14.8071 7.33523 14.8071 6.45633L14.8071 4.72293C19.4214 5.77273 22.8149 9.8743 22.8149 14.8181C22.8149 20.5799 18.2129 25.1941 12.4512 25.1941C6.68945 25.1941 2.06299 20.5799 2.0752 14.8181C2.0874 11.3513 3.77197 8.28738 6.37207 6.43191C6.87256 6.05349 7.03125 5.47976 6.72607 4.96707C6.4209 4.46658 5.74951 4.3323 5.2124 4.74734C2.0752 7.03006 0 10.7166 0 14.8181Z" fill="#000000" fill-opacity="0.85"/>
  <path d="M9.10645 19.8108C9.58252 19.8108 9.8877 19.4812 9.8877 18.9685L9.8877 11.2903C9.8877 10.6922 9.57031 10.3137 9.021 10.3137C8.69141 10.3137 8.45947 10.4236 8.00781 10.7166L6.32324 11.8518C6.05469 12.0471 5.92041 12.2669 5.92041 12.5598C5.92041 12.9627 6.23779 13.3045 6.62842 13.3045C6.86035 13.3045 6.97021 13.2556 7.21436 13.0847L8.38623 12.2303L8.34961 12.2303L8.34961 18.9685C8.34961 19.469 8.64258 19.8108 9.10645 19.8108ZM15.4663 19.9573C17.4927 19.9573 18.8232 18.0408 18.8232 15.1111C18.8232 12.157 17.4927 10.2161 15.4663 10.2161C13.4399 10.2161 12.1094 12.157 12.1094 15.1111C12.1094 18.0408 13.4399 19.9573 15.4663 19.9573ZM15.4663 18.4803C14.3921 18.4803 13.6963 17.1985 13.6963 15.1111C13.6963 12.9871 14.3799 11.6931 15.4663 11.6931C16.5527 11.6931 17.2241 12.9749 17.2241 15.1111C17.2241 17.1985 16.5405 18.4803 15.4663 18.4803Z" fill="#000000" fill-opacity="0.85"/>
 </g>
</svg>
