<?xml version="1.0" encoding="UTF-8"?>
<!--Generator: Apple Native CoreSVG 175.5-->
<!DOCTYPE svg
PUBLIC "-//W3C//DTD SVG 1.1//EN"
       "http://www.w3.org/Graphics/SVG/1.1/DTD/svg11.dtd">
<svg version="1.1" xmlns="http://www.w3.org/2000/svg" xmlns:xlink="http://www.w3.org/1999/xlink" width="24.9023" height="29.6406">
 <g>
  <rect height="29.6406" opacity="0" width="24.9023" x="0" y="0"/>
  <path d="M0 14.8142C0 21.6257 5.65186 27.2654 12.4512 27.2654C19.2627 27.2654 24.9023 21.6257 24.9023 14.8142C24.9023 10.7126 22.8271 7.02611 19.6899 4.7434C19.1528 4.32836 18.4814 4.46263 18.1763 4.96312C17.8711 5.47582 18.0298 6.04955 18.5303 6.42797C21.1304 8.28343 22.8149 11.3474 22.8271 14.8142C22.8394 20.5759 18.2129 25.1902 12.4512 25.1902C6.68945 25.1902 2.0874 20.5759 2.0874 14.8142C2.0874 9.87035 5.48096 5.76879 10.0952 4.71898L10.0952 6.46459C10.0952 7.33129 10.6934 7.56322 11.3647 7.08715L15.2588 4.35277C15.8081 3.97435 15.8203 3.38842 15.2588 2.98558L11.377 0.251208C10.6934-0.237073 10.0952-0.00513969 10.0952 0.873767L10.0952 2.59496C4.38232 3.718 0 8.80834 0 14.8142Z" fill="#000000" fill-opacity="0.85"/>
  <path d="M9.04541 19.8069C9.52148 19.8069 9.82666 19.4773 9.82666 18.9646L9.82666 11.2864C9.82666 10.6882 9.50928 10.3098 8.95996 10.3098C8.63037 10.3098 8.39844 10.4197 7.94678 10.7126L6.26221 11.8479C5.99365 12.0432 5.85938 12.2629 5.85938 12.5559C5.85938 12.9587 6.17676 13.3005 6.56738 13.3005C6.79932 13.3005 6.90918 13.2517 7.15332 13.0808L8.3252 12.2263L8.28857 12.2263L8.28857 18.9646C8.28857 19.4651 8.58154 19.8069 9.04541 19.8069ZM15.4053 19.9534C17.4316 19.9534 18.7622 18.0369 18.7622 15.1072C18.7622 12.1531 17.4316 10.2121 15.4053 10.2121C13.3789 10.2121 12.0483 12.1531 12.0483 15.1072C12.0483 18.0369 13.3789 19.9534 15.4053 19.9534ZM15.4053 18.4763C14.3311 18.4763 13.6353 17.1946 13.6353 15.1072C13.6353 12.9831 14.3188 11.6892 15.4053 11.6892C16.4917 11.6892 17.1631 12.9709 17.1631 15.1072C17.1631 17.1946 16.4795 18.4763 15.4053 18.4763Z" fill="#000000" fill-opacity="0.85"/>
 </g>
</svg>
