<?xml version="1.0" encoding="UTF-8"?>
<!--Generator: Apple Native CoreSVG 175.5-->
<!DOCTYPE svg
PUBLIC "-//W3C//DTD SVG 1.1//EN"
       "http://www.w3.org/Graphics/SVG/1.1/DTD/svg11.dtd">
<svg version="1.1" xmlns="http://www.w3.org/2000/svg" xmlns:xlink="http://www.w3.org/1999/xlink" width="24.9023" height="29.6406">
 <g>
  <rect height="29.6406" opacity="0" width="24.9023" x="0" y="0"/>
  <path d="M0 14.8142C0 21.6257 5.65186 27.2654 12.4512 27.2654C19.2627 27.2654 24.9023 21.6257 24.9023 14.8142C24.9023 10.7126 22.8271 7.02611 19.6899 4.7434C19.1528 4.32836 18.4814 4.46263 18.1763 4.96312C17.8711 5.47582 18.0298 6.04955 18.5303 6.42797C21.1304 8.28343 22.8149 11.3474 22.8271 14.8142C22.8394 20.5759 18.2129 25.1902 12.4512 25.1902C6.68945 25.1902 2.0874 20.5759 2.0874 14.8142C2.0874 9.87035 5.48096 5.76879 10.0952 4.71898L10.0952 6.46459C10.0952 7.33129 10.6934 7.56322 11.3647 7.08715L15.2588 4.35277C15.8081 3.97435 15.8203 3.38842 15.2588 2.98558L11.377 0.251208C10.6934-0.237073 10.0952-0.00513969 10.0952 0.873767L10.0952 2.59496C4.38232 3.718 0 8.80834 0 14.8142Z" fill="#000000" fill-opacity="0.85"/>
  <path d="M12.2681 19.9656C14.2944 19.9656 15.625 18.6594 15.625 16.6941C15.625 14.8996 14.4165 13.6179 12.6709 13.6179C11.9019 13.6179 11.0596 13.9963 10.7422 14.6189L10.8032 14.6189L11.0229 11.8601L14.6729 11.8601C15.0391 11.8601 15.3442 11.5671 15.3442 11.1521C15.3442 10.737 15.0391 10.4685 14.6729 10.4685L10.7666 10.4685C10.1318 10.4685 9.77783 10.8347 9.729 11.4817L9.46045 14.9973C9.41162 15.6077 9.729 15.9006 10.2539 15.9006C10.6567 15.9006 10.8398 15.8274 11.1816 15.5588C11.6577 15.1316 12.0239 14.9607 12.5122 14.9607C13.4644 14.9607 14.0991 15.6565 14.0991 16.7185C14.0991 17.7927 13.3423 18.574 12.3413 18.574C11.6089 18.574 10.9985 18.1589 10.6812 17.5242C10.498 17.2068 10.2783 17.0359 9.97314 17.0359C9.57031 17.0359 9.28955 17.3288 9.28955 17.7439C9.28955 17.9148 9.32617 18.0735 9.38721 18.2322C9.7168 19.1111 10.791 19.9656 12.2681 19.9656Z" fill="#000000" fill-opacity="0.85"/>
 </g>
</svg>
