<?xml version="1.0" encoding="UTF-8"?>
<!--Generator: Apple Native CoreSVG 175.5-->
<!DOCTYPE svg
PUBLIC "-//W3C//DTD SVG 1.1//EN"
       "http://www.w3.org/Graphics/SVG/1.1/DTD/svg11.dtd">
<svg version="1.1" xmlns="http://www.w3.org/2000/svg" xmlns:xlink="http://www.w3.org/1999/xlink" width="25.1221" height="24.5483">
 <g>
  <rect height="24.5483" opacity="0" width="25.1221" x="0" y="0"/>
  <path d="M2.74658 23.9258L13.916 23.9258C15.7104 23.9258 16.6626 22.9492 16.6626 21.0205L16.6626 12.6099C16.6626 10.6934 15.7104 9.7168 13.916 9.7168L2.74658 9.7168C0.952148 9.7168 0 10.6934 0 12.6099L0 21.0205C0 22.9492 0.952148 23.9258 2.74658 23.9258ZM2.80762 22.0825C2.28271 22.0825 1.97754 21.7529 1.97754 21.1548L1.97754 12.4756C1.97754 11.8774 2.28271 11.5601 2.80762 11.5601L13.855 11.5601C14.3921 11.5601 14.6851 11.8774 14.6851 12.4756L14.6851 21.1548C14.6851 21.7529 14.3921 22.0825 13.855 22.0825ZM12.7319 10.6689L14.6606 10.6689L14.6606 6.55518C14.6606 3.4668 16.6382 1.84326 18.9209 1.84326C21.2036 1.84326 23.1812 3.4668 23.1812 6.55518L23.1812 9.26514C23.1812 9.98535 23.6084 10.3516 24.1577 10.3516C24.6826 10.3516 25.1221 10.022 25.1221 9.26514L25.1221 6.81152C25.1221 2.22168 22.1069 0 18.9209 0C15.7227 0 12.7319 2.22168 12.7319 6.81152Z" fill="#000000" fill-opacity="0.85"/>
 </g>
</svg>
