<?xml version="1.0" encoding="UTF-8"?>
<!--Generator: Apple Native CoreSVG 326-->
<!DOCTYPE svg
PUBLIC "-//W3C//DTD SVG 1.1//EN"
       "http://www.w3.org/Graphics/SVG/1.1/DTD/svg11.dtd">
<svg version="1.1" xmlns="http://www.w3.org/2000/svg" xmlns:xlink="http://www.w3.org/1999/xlink" width="23.8867" height="19.7559">
 <g>
  <rect height="19.7559" opacity="0" width="23.8867" x="0" y="0"/>
  <path d="M23.5254 6.58203C23.5254 10.5957 17.8516 10.9082 17.8516 12.4707C17.8516 13.6035 19.4922 14.0332 19.4922 15.957C19.4922 18.1055 16.748 19.5605 12.6367 19.5605C5.10742 19.5605 0 15.6934 0 9.95117C0 3.98438 5.38086 0 13.3594 0C19.4336 0 23.5254 2.61719 23.5254 6.58203ZM9.82422 13.2324C9.82422 14.668 10.9961 15.8301 12.4219 15.8301C13.8574 15.8301 15.0293 14.668 15.0293 13.2324C15.0293 11.8066 13.8574 10.6348 12.4219 10.6348C10.9961 10.6348 9.82422 11.8066 9.82422 13.2324ZM2.98828 9.50195C2.98828 10.4004 3.73047 11.1426 4.61914 11.1426C5.51758 11.1426 6.24023 10.4004 6.24023 9.50195C6.24023 8.60352 5.51758 7.89062 4.61914 7.89062C3.75977 7.89062 2.98828 8.64258 2.98828 9.50195ZM6.29883 5.63477C6.29883 6.78711 7.2168 7.68555 8.36914 7.68555C9.49219 7.68555 10.4102 6.78711 10.4102 5.63477C10.4102 4.51172 9.48242 3.61328 8.36914 3.61328C7.2168 3.61328 6.29883 4.51172 6.29883 5.63477ZM16.8262 5.67383C16.8262 6.41602 17.4316 7.00195 18.1738 7.00195C18.9062 7.00195 19.4922 6.41602 19.4922 5.67383C19.4922 4.94141 18.9062 4.33594 18.1738 4.33594C17.4316 4.33594 16.8262 4.94141 16.8262 5.67383ZM11.9141 4.50195C11.9141 5.41016 12.6758 6.14258 13.5742 6.14258C14.4922 6.14258 15.2148 5.41016 15.2148 4.50195C15.2148 3.59375 14.4922 2.86133 13.5742 2.86133C12.6758 2.86133 11.9141 3.59375 11.9141 4.50195Z" fill="black" fill-opacity="0.85"/>
 </g>
</svg>
