<?xml version="1.0" encoding="UTF-8"?>
<!--Generator: Apple Native CoreSVG 175.5-->
<!DOCTYPE svg
PUBLIC "-//W3C//DTD SVG 1.1//EN"
       "http://www.w3.org/Graphics/SVG/1.1/DTD/svg11.dtd">
<svg version="1.1" xmlns="http://www.w3.org/2000/svg" xmlns:xlink="http://www.w3.org/1999/xlink" width="11.1604" height="20.5649">
 <g>
  <rect height="20.5649" opacity="0" width="11.1604" x="0" y="0"/>
  <path d="M1.33202 20.5649C2.09153 20.5649 2.67405 20.0068 2.67405 19.2683L2.67405 1.31664C2.67405 0.57812 2.09153 0.0100099 1.33202 0.0100099C0.582515 0.0100099 0 0.57812 0 1.31664L0 19.2683C0 20.0068 0.582515 20.5649 1.33202 20.5649ZM9.81833 20.5649C10.5678 20.5649 11.1604 20.0068 11.1604 19.2683L11.1604 1.31664C11.1604 0.57812 10.5678 0.0100099 9.81833 0.0100099C9.06663 0.0100099 8.48631 0.57812 8.48631 1.31664L8.48631 19.2683C8.48631 20.0068 9.06663 20.5649 9.81833 20.5649Z" fill="#000000" fill-opacity="0.85"/>
 </g>
</svg>
