<?xml version="1.0" encoding="UTF-8"?>
<!--Generator: Apple Native CoreSVG 175.5-->
<!DOCTYPE svg
PUBLIC "-//W3C//DTD SVG 1.1//EN"
       "http://www.w3.org/Graphics/SVG/1.1/DTD/svg11.dtd">
<svg version="1.1" xmlns="http://www.w3.org/2000/svg" xmlns:xlink="http://www.w3.org/1999/xlink" width="20.1416" height="20.1538">
 <g>
  <rect height="20.1538" opacity="0" width="20.1416" x="0" y="0"/>
  <path d="M0 10.0708C0 10.6689 0.500488 11.1572 1.08643 11.1572L8.98438 11.1572L8.98438 19.0552C8.98438 19.6411 9.47266 20.1416 10.0708 20.1416C10.6689 20.1416 11.1694 19.6411 11.1694 19.0552L11.1694 11.1572L19.0552 11.1572C19.6411 11.1572 20.1416 10.6689 20.1416 10.0708C20.1416 9.47266 19.6411 8.97217 19.0552 8.97217L11.1694 8.97217L11.1694 1.08643C11.1694 0.500488 10.6689 0 10.0708 0C9.47266 0 8.98438 0.500488 8.98438 1.08643L8.98438 8.97217L1.08643 8.97217C0.500488 8.97217 0 9.47266 0 10.0708Z" fill="#000000" fill-opacity="0.85"/>
 </g>
</svg>
