<?xml version="1.0" encoding="UTF-8"?>
<!--Generator: Apple Native CoreSVG 341-->
<!DOCTYPE svg
PUBLIC "-//W3C//DTD SVG 1.1//EN"
       "http://www.w3.org/Graphics/SVG/1.1/DTD/svg11.dtd">
<svg version="1.1" xmlns="http://www.w3.org/2000/svg" xmlns:xlink="http://www.w3.org/1999/xlink" width="21.8848" height="21.4551">
 <g>
  <rect height="21.4551" opacity="0" width="21.8848" x="0" y="0"/>
  <path d="M6.00586 21.4551C6.48438 21.4551 6.81641 21.2012 7.41211 20.6738L10.7812 17.6758L17.0508 17.6758C19.9609 17.6758 21.5234 16.0645 21.5234 13.2031L21.5234 5.72266C21.5234 2.86133 19.9609 1.25 17.0508 1.25L4.47266 1.25C1.5625 1.25 0 2.85156 0 5.72266L0 13.2031C0 16.0742 1.5625 17.6758 4.47266 17.6758L4.94141 17.6758L4.94141 20.2148C4.94141 20.9668 5.32227 21.4551 6.00586 21.4551ZM6.40625 19.668L6.40625 16.8359C6.40625 16.3086 6.20117 16.1035 5.67383 16.1035L4.47266 16.1035C2.5 16.1035 1.57227 15.0977 1.57227 13.1934L1.57227 5.72266C1.57227 3.81836 2.5 2.82227 4.47266 2.82227L17.0508 2.82227C19.0137 2.82227 19.9512 3.81836 19.9512 5.72266L19.9512 13.1934C19.9512 15.0977 19.0137 16.1035 17.0508 16.1035L10.7227 16.1035C10.1758 16.1035 9.90234 16.1816 9.53125 16.5625Z" fill="black" fill-opacity="0.85"/>
  <path d="M6.04492 8.41797C6.04492 9.53125 6.73828 10.3906 7.8418 10.3906C8.25195 10.3906 8.66211 10.3223 8.91602 10L8.99414 10C8.63281 10.8105 7.88086 11.3281 7.24609 11.4941C6.88477 11.5918 6.77734 11.748 6.77734 11.9824C6.77734 12.2266 6.98242 12.4316 7.25586 12.4316C8.24219 12.4316 10.2246 11.2598 10.2246 8.7793C10.2246 7.45117 9.36523 6.44531 8.0957 6.44531C6.92383 6.44531 6.04492 7.25586 6.04492 8.41797ZM11.3184 8.41797C11.3184 9.53125 12.0117 10.3906 13.1152 10.3906C13.5254 10.3906 13.9355 10.3223 14.1895 10L14.2676 10C13.9062 10.8105 13.1543 11.3281 12.5195 11.4941C12.168 11.5918 12.0508 11.748 12.0508 11.9824C12.0508 12.2266 12.2559 12.4316 12.5293 12.4316C13.5156 12.4316 15.498 11.2598 15.498 8.7793C15.498 7.45117 14.6387 6.44531 13.3691 6.44531C12.1973 6.44531 11.3184 7.25586 11.3184 8.41797Z" fill="black" fill-opacity="0.85"/>
 </g>
</svg>
