<?xml version="1.0" encoding="UTF-8"?>
<!--Generator: Apple Native CoreSVG 232.5-->
<!DOCTYPE svg
PUBLIC "-//W3C//DTD SVG 1.1//EN"
       "http://www.w3.org/Graphics/SVG/1.1/DTD/svg11.dtd">
<svg version="1.1" xmlns="http://www.w3.org/2000/svg" xmlns:xlink="http://www.w3.org/1999/xlink" width="20.2832" height="19.9316">
 <g>
  <rect height="19.9316" opacity="0" width="20.2832" x="0" y="0"/>
  <path d="M19.9219 9.96094C19.9219 15.4004 15.4102 19.9219 9.96094 19.9219C4.52148 19.9219 0 15.4004 0 9.96094C0 4.51172 4.51172 0 9.95117 0C15.4004 0 19.9219 4.51172 19.9219 9.96094ZM7.36328 5.27344C6.85547 5.27344 6.58203 5.64453 6.58203 6.19141L6.58203 13.6719C6.58203 14.209 6.86523 14.5801 7.37305 14.5801C7.90039 14.5801 8.19336 14.2285 8.19336 13.6719L8.19336 11.1719L10.0684 11.1719L11.8066 14.043C12.0508 14.4336 12.2559 14.5801 12.6172 14.5801C13.0469 14.5801 13.3496 14.2969 13.3496 13.8867C13.3496 13.6621 13.291 13.5059 13.1641 13.3008L11.6602 10.9375C12.8418 10.5469 13.6035 9.49219 13.6035 8.24219C13.6035 6.42578 12.3047 5.27344 10.2637 5.27344ZM12.0117 8.28125C12.0117 9.375 11.2402 9.99023 10.0293 9.99023L8.19336 9.99023L8.19336 6.51367L10.0684 6.51367C11.2207 6.51367 12.0117 7.1582 12.0117 8.28125Z" fill="#ff0000" fill-opacity="0.85"/>
 </g>
</svg>
