<?xml version="1.0" encoding="UTF-8"?>
<!--Generator: Apple Native CoreSVG 326-->
<!DOCTYPE svg
PUBLIC "-//W3C//DTD SVG 1.1//EN"
       "http://www.w3.org/Graphics/SVG/1.1/DTD/svg11.dtd">
<svg version="1.1" xmlns="http://www.w3.org/2000/svg" xmlns:xlink="http://www.w3.org/1999/xlink" viewBox="0 0 23.7183 23.4424">
 <g>
  <rect height="23.4424" opacity="0" width="23.7183" x="0" y="0"/>
  <path d="M2.06186 4.76911C1.84537 5.02417 1.73218 5.38515 1.73218 5.84719L1.73218 17.605C1.73218 18.6206 2.27906 19.1382 3.25562 19.1382L16.4453 19.1382L18.0191 20.7105L3.22632 20.7105C1.19507 20.7105 0.159918 19.7046 0.159918 17.6929L0.159918 5.7593C0.159918 4.8024 0.394128 4.07087 0.861177 3.56962ZM23.197 5.7593L23.197 17.6929C23.197 18.6362 22.9716 19.3583 22.5187 19.8564L21.3152 18.6528C21.5175 18.4007 21.6248 18.0509 21.6248 17.605L21.6248 5.84719C21.6248 4.83157 21.0681 4.30422 20.1013 4.30422L6.96656 4.30422L5.39429 2.73196L20.1306 2.73196C22.1716 2.73196 23.197 3.74758 23.197 5.7593Z" fill="black" fill-opacity="0.85"/>
  <path d="M21.0095 22.0777C21.3025 22.3706 21.781 22.3804 22.074 22.0777C22.3572 21.7847 22.3669 21.3062 22.074 21.0132L2.42554 1.3843C2.13257 1.09133 1.65406 1.08157 1.35132 1.3843C1.06812 1.6675 1.06812 2.15579 1.35132 2.44875Z" fill="black" fill-opacity="0.85"/>
 </g>
</svg>
