<?xml version="1.0" encoding="UTF-8"?>
<!--Generator: Apple Native CoreSVG 232.5-->
<!DOCTYPE svg
PUBLIC "-//W3C//DTD SVG 1.1//EN"
       "http://www.w3.org/Graphics/SVG/1.1/DTD/svg11.dtd">
<svg version="1.1" xmlns="http://www.w3.org/2000/svg" xmlns:xlink="http://www.w3.org/1999/xlink" width="27.0644" height="23.7537">
 <g>
  <rect height="23.7537" opacity="0" width="27.0644" x="0" y="0"/>
  <path d="M20.5781 3.55164L20.5781 7.89933C20.1131 7.6916 19.637 7.63666 19.2011 7.68044L19.2011 3.62977C19.2011 2.57508 18.625 1.99891 17.5898 1.99891L4.70893 1.99891C3.66401 1.99891 3.08784 2.57508 3.08784 3.62977L3.08784 13.327C3.08784 14.3817 3.67378 14.9677 4.70893 14.9677L8.06408 14.9677C8.08084 15.0362 8.1022 15.1045 8.1269 15.1727C8.24409 15.495 8.41987 15.7977 8.62495 16.0516L8.85977 16.3446L4.67964 16.3446C2.69722 16.3446 1.71089 15.3778 1.71089 13.4149L1.71089 3.55164C1.71089 1.57899 2.69722 0.621956 4.67964 0.621956L17.6191 0.621956C19.6015 0.621956 20.5781 1.57899 20.5781 3.55164Z" fill="#000000" fill-opacity="0.85"/>
  <path d="M21.3496 21.9501C25.3339 20.5048 26.6621 17.1942 25.1093 12.9364L24.4648 11.1688C23.8789 9.5575 22.746 8.84461 21.8671 9.16688C21.6718 9.245 21.5937 9.38172 21.6718 9.56727L21.955 10.3583C22.0917 10.7196 21.9648 10.9833 21.75 11.0614C21.5058 11.1493 21.2519 11.0321 21.1152 10.661L20.9296 10.1434C20.5878 9.19617 19.7578 8.79578 18.9277 9.09852C18.5566 9.23524 18.4492 9.45008 18.5566 9.77235L18.9472 10.827C19.0839 11.1981 18.957 11.4423 18.7421 11.5204C18.5078 11.6083 18.2441 11.5009 18.1171 11.1395L17.7656 10.1434C17.3652 9.08875 16.5644 8.81531 15.7636 9.09852C15.4218 9.22547 15.2949 9.45985 15.3925 9.76258L16.1542 11.8427C16.291 12.2138 16.164 12.4677 15.9492 12.5458C15.7148 12.6337 15.4609 12.5165 15.3242 12.1454L12.7949 5.1825C12.541 4.49891 11.9355 4.22547 11.3691 4.43055C10.7441 4.65516 10.4804 5.25086 10.7246 5.93446L14.4355 16.1298C14.5234 16.3837 14.416 16.579 14.2597 16.6278C14.1035 16.6864 13.9472 16.6376 13.7421 16.4227L11.2324 13.7372C10.8613 13.3368 10.4804 13.2391 10.0703 13.3954C9.44526 13.62 9.19136 14.1962 9.38667 14.7235C9.45503 14.9286 9.56245 15.0848 9.66987 15.2216L12.7753 19.0985C15.3828 22.3895 18.4101 23.0145 21.3496 21.9501Z" fill="#000000" fill-opacity="0.85"/>
 </g>
</svg>
