<?xml version="1.0" encoding="UTF-8"?>
<!--Generator: Apple Native CoreSVG 232.5-->
<!DOCTYPE svg
PUBLIC "-//W3C//DTD SVG 1.1//EN"
       "http://www.w3.org/Graphics/SVG/1.1/DTD/svg11.dtd">
<svg version="1.1" xmlns="http://www.w3.org/2000/svg" xmlns:xlink="http://www.w3.org/1999/xlink" width="24.082" height="24.7269">
 <g>
  <rect height="24.7269" opacity="0" width="24.082" x="0" y="0"/>
  <path d="M23.4668 8.6769C23.7988 8.6769 24.082 8.40346 24.082 8.07143L24.082 6.60659C24.082 3.81362 22.2168 1.92885 19.4141 1.92885L19.209 1.92885L19.209 0.698386C19.209-0.0242701 18.6621-0.190286 18.1152 0.219871L15.6543 2.02651C15.2441 2.32925 15.2344 2.68081 15.6543 2.98354L18.1152 4.78042C18.6621 5.18081 19.209 5.01479 19.209 4.31167L19.209 3.06167L19.4043 3.06167C21.5234 3.06167 22.8613 4.52651 22.8613 6.60659L22.8613 8.07143C22.8613 8.40346 23.1348 8.6769 23.4668 8.6769Z" fill="#000000" fill-opacity="0.85"/>
  <path d="M7.02148 21.3527L16.6992 21.3527C18.3691 21.3527 19.209 20.5617 19.209 18.8527L19.209 9.19448C19.209 7.4855 18.3691 6.68471 16.6992 6.68471L7.02148 6.68471C5.35156 6.68471 4.51172 7.4855 4.51172 9.19448L4.51172 18.8527C4.51172 20.5617 5.35156 21.3527 7.02148 21.3527ZM7.05078 19.7804C6.38672 19.7804 6.08398 19.507 6.08398 18.8234L6.08398 9.21401C6.08398 8.53042 6.38672 8.25698 7.05078 8.25698L16.6699 8.25698C17.3438 8.25698 17.6367 8.53042 17.6367 9.21401L17.6367 18.8234C17.6367 19.507 17.3438 19.7804 16.6699 19.7804Z" fill="#000000" fill-opacity="0.85"/>
 </g>
</svg>
