<?xml version="1.0" encoding="UTF-8"?>
<!--Generator: Apple Native CoreSVG 232.5-->
<!DOCTYPE svg
PUBLIC "-//W3C//DTD SVG 1.1//EN"
       "http://www.w3.org/Graphics/SVG/1.1/DTD/svg11.dtd">
<svg version="1.1" xmlns="http://www.w3.org/2000/svg" xmlns:xlink="http://www.w3.org/1999/xlink" width="24.7852" height="24.7269">
 <g>
  <rect height="24.7269" opacity="0" width="24.7852" x="0" y="0"/>
  <path d="M0.605469 8.6769C0.9375 8.6769 1.2207 8.40346 1.2207 8.07143L1.2207 6.60659C1.2207 4.52651 2.55859 3.06167 4.67773 3.06167L4.86328 3.06167L4.86328 4.31167C4.86328 5.01479 5.41016 5.18081 5.95703 4.78042L8.41797 2.98354C8.83789 2.68081 8.82812 2.32925 8.41797 2.02651L5.95703 0.219871C5.41016-0.190286 4.86328-0.0242701 4.86328 0.698386L4.86328 1.92885L4.66797 1.92885C1.85547 1.92885 0 3.81362 0 6.60659L0 8.07143C0 8.40346 0.273438 8.6769 0.605469 8.6769Z" fill="#000000" fill-opacity="0.85"/>
  <path d="M17.0508 21.3527C18.7207 21.3527 19.5605 20.5617 19.5605 18.8527L19.5605 9.19448C19.5605 7.4855 18.7207 6.68471 17.0508 6.68471L7.37305 6.68471C5.70312 6.68471 4.86328 7.4855 4.86328 9.19448L4.86328 18.8527C4.86328 20.5617 5.70312 21.3527 7.37305 21.3527ZM17.0215 19.7804L7.40234 19.7804C6.73828 19.7804 6.43555 19.507 6.43555 18.8234L6.43555 9.21401C6.43555 8.53042 6.73828 8.25698 7.40234 8.25698L17.0215 8.25698C17.6953 8.25698 17.9883 8.53042 17.9883 9.21401L17.9883 18.8234C17.9883 19.507 17.6953 19.7804 17.0215 19.7804Z" fill="#000000" fill-opacity="0.85"/>
 </g>
</svg>
