<?xml version="1.0" encoding="UTF-8"?>
<!--Generator: Apple Native CoreSVG 175.5-->
<!DOCTYPE svg
PUBLIC "-//W3C//DTD SVG 1.1//EN"
       "http://www.w3.org/Graphics/SVG/1.1/DTD/svg11.dtd">
<svg version="1.1" xmlns="http://www.w3.org/2000/svg" xmlns:xlink="http://www.w3.org/1999/xlink" width="24.5972" height="20.813">
 <g>
  <rect height="20.813" opacity="0" width="24.5972" x="0" y="0"/>
  <path d="M16.6748 20.813C18.2861 20.813 19.6045 19.4946 19.6045 17.8833C19.6045 16.272 18.2861 14.9536 16.6748 14.9536C15.0635 14.9536 13.7329 16.272 13.7329 17.8833C13.7329 19.4946 15.0635 20.813 16.6748 20.813ZM16.6748 19.3115C15.8691 19.3115 15.2466 18.6768 15.2466 17.8833C15.2466 17.0654 15.8691 16.4551 16.6748 16.4551C17.4805 16.4551 18.103 17.0654 18.103 17.8833C18.103 18.6768 17.4805 19.3115 16.6748 19.3115ZM14.7339 16.8945L0.976562 16.8945C0.427246 16.8945 0 17.334 0 17.8833C0 18.4326 0.427246 18.8599 0.976562 18.8599L14.7339 18.8599ZM23.6572 16.8945L18.7988 16.8945L18.7988 18.8599L23.6572 18.8599C24.1577 18.8599 24.5972 18.4326 24.5972 17.8833C24.5972 17.334 24.1577 16.8945 23.6572 16.8945ZM8.05664 13.3667C9.66797 13.3667 10.9863 12.0361 10.9863 10.4248C10.9863 8.81348 9.66797 7.49512 8.05664 7.49512C6.44531 7.49512 5.12695 8.81348 5.12695 10.4248C5.12695 12.0361 6.44531 13.3667 8.05664 13.3667ZM8.05664 11.853C7.26318 11.853 6.62842 11.2183 6.62842 10.4248C6.62842 9.61914 7.26318 8.99658 8.05664 8.99658C8.8623 8.99658 9.48486 9.61914 9.48486 10.4248C9.48486 11.2183 8.8623 11.853 8.05664 11.853ZM0.927734 9.43604C0.427246 9.43604 0 9.87549 0 10.4248C0 10.9741 0.427246 11.4014 0.927734 11.4014L5.95703 11.4014L5.95703 9.43604ZM23.6084 9.43604L9.99756 9.43604L9.99756 11.4014L23.6084 11.4014C24.1577 11.4014 24.5972 10.9741 24.5972 10.4248C24.5972 9.87549 24.1577 9.43604 23.6084 9.43604ZM16.6748 5.896C18.2861 5.896 19.6045 4.57764 19.6045 2.96631C19.6045 1.35498 18.2861 0.0244141 16.6748 0.0244141C15.0635 0.0244141 13.7329 1.35498 13.7329 2.96631C13.7329 4.57764 15.0635 5.896 16.6748 5.896ZM16.6748 4.39453C15.8691 4.39453 15.2466 3.75977 15.2466 2.9541C15.2466 2.14844 15.8691 1.52588 16.6748 1.52588C17.4805 1.52588 18.103 2.14844 18.103 2.9541C18.103 3.75977 17.4805 4.39453 16.6748 4.39453ZM14.7949 1.98975L0.976562 1.98975C0.427246 1.98975 0 2.41699 0 2.96631C0 3.51562 0.427246 3.95508 0.976562 3.95508L14.7949 3.95508ZM23.6572 1.98975L18.6279 1.98975L18.6279 3.95508L23.6572 3.95508C24.1577 3.95508 24.5972 3.51562 24.5972 2.96631C24.5972 2.41699 24.1577 1.98975 23.6572 1.98975Z" fill="#000000" fill-opacity="1"/>
 </g>
</svg>
