<?xml version="1.0" encoding="UTF-8"?>
<!--Generator: Apple Native CoreSVG 232.5-->
<!DOCTYPE svg
PUBLIC "-//W3C//DTD SVG 1.1//EN"
       "http://www.w3.org/Graphics/SVG/1.1/DTD/svg11.dtd">
<svg version="1.1" xmlns="http://www.w3.org/2000/svg" xmlns:xlink="http://www.w3.org/1999/xlink" width="21.0254" height="20.4785">
 <g>
  <rect height="20.4785" opacity="0" width="21.0254" x="0" y="0"/>
  <path d="M15.9277 3.04688L15.9277 4.54102L14.3555 4.54102L14.3555 3.13477C14.3555 2.11914 13.8086 1.5918 12.8418 1.5918L3.08594 1.5918C2.10938 1.5918 1.57227 2.11914 1.57227 3.13477L1.57227 12.8418C1.57227 13.8574 2.10938 14.3848 3.08594 14.3848L4.73633 14.3848L4.73633 15.957L3.06641 15.957C1.01562 15.957 0 14.9414 0 12.9297L0 3.04688C0 1.03516 1.01562 0.0195312 3.06641 0.0195312L12.8711 0.0195312C14.9023 0.0195312 15.9277 1.03516 15.9277 3.04688Z" fill="#000000" fill-opacity="0.85"/>
  <path d="M20.6641 7.56836L20.6641 17.4512C20.6641 19.4629 19.6387 20.4785 17.6074 20.4785L7.80273 20.4785C5.75195 20.4785 4.73633 19.4629 4.73633 17.4512L4.73633 7.56836C4.73633 5.54688 5.75195 4.54102 7.80273 4.54102L17.6074 4.54102C19.6387 4.54102 20.6641 5.55664 20.6641 7.56836ZM8.95508 13.8867C8.67188 15.3125 8.79883 15.3809 7.19727 15.6543C7.05078 15.6738 6.95312 15.7812 6.95312 15.9277C6.95312 16.084 7.05078 16.1719 7.2168 16.2012C8.79883 16.4453 8.67188 16.5039 8.95508 17.9492C9.00391 18.1055 9.0918 18.2031 9.23828 18.2031C9.38477 18.2031 9.49219 18.1152 9.53125 17.9785C9.79492 16.5039 9.69727 16.4453 11.2988 16.2012C11.4355 16.1719 11.543 16.0645 11.543 15.9277C11.543 15.7812 11.4355 15.6738 11.2988 15.6543C9.70703 15.3809 9.79492 15.3125 9.53125 13.8867C9.49219 13.7402 9.39453 13.6328 9.23828 13.6328C9.10156 13.6328 9.00391 13.7305 8.95508 13.8867ZM12.8223 7.66602C12.2754 10.6348 12.002 11.1621 8.93555 11.582C8.73047 11.6113 8.59375 11.7578 8.59375 11.9434C8.59375 12.1387 8.73047 12.2852 8.93555 12.3145C12.0117 12.627 12.4023 13.2812 12.8223 16.2305C12.8613 16.4258 12.998 16.5625 13.2129 16.5625C13.3887 16.5625 13.5254 16.4258 13.5742 16.2402C14.1309 13.2812 14.4043 12.7246 17.4805 12.3145C17.6758 12.2949 17.8125 12.1387 17.8125 11.9434C17.8125 11.7578 17.6758 11.6113 17.4805 11.582C14.4141 11.1621 14.0039 10.5762 13.5742 7.67578C13.5352 7.48047 13.3887 7.33398 13.2129 7.33398C13.0176 7.33398 12.8809 7.4707 12.8223 7.66602Z" fill="#000000" fill-opacity="0.85"/>
 </g>
</svg>
