<?xml version="1.0" encoding="UTF-8"?>
<!--Generator: Apple Native CoreSVG 326-->
<!DOCTYPE svg
PUBLIC "-//W3C//DTD SVG 1.1//EN"
       "http://www.w3.org/Graphics/SVG/1.1/DTD/svg11.dtd">
<svg version="1.1" xmlns="http://www.w3.org/2000/svg" xmlns:xlink="http://www.w3.org/1999/xlink" width="17.6953" height="24.7168">
 <g>
  <rect height="24.7168" opacity="0" width="17.6953" x="0" y="0"/>
  <path d="M17.334 10.166L17.334 19.8047C17.334 21.8164 16.3086 22.832 14.2676 22.832L3.06641 22.832C1.02539 22.832 0 21.8262 0 19.8047L0 10.166C0 8.14453 1.03516 7.13867 3.06641 7.13867L6.05469 7.13867L6.05469 8.71094L3.0957 8.71094C2.11914 8.71094 1.57227 9.22852 1.57227 10.2441L1.57227 19.7266C1.57227 20.7422 2.10938 21.2598 3.08594 21.2598L14.2383 21.2598C15.2051 21.2598 15.7617 20.7422 15.7617 19.7266L15.7617 10.2441C15.7617 9.22852 15.2051 8.71094 14.2383 8.71094L11.2695 8.71094L11.2695 7.13867L14.2676 7.13867C16.3086 7.13867 17.334 8.1543 17.334 10.166Z" fill="black" fill-opacity="0.85"/>
  <path d="M8.67188 1.94336C8.25195 1.94336 7.89062 2.28516 7.89062 2.69531L7.89062 12.627L7.94922 14.0918L7.40234 13.5156L5.88867 11.9043C5.75195 11.748 5.54688 11.6699 5.35156 11.6699C4.94141 11.6699 4.64844 11.9531 4.64844 12.3535C4.64844 12.5684 4.73633 12.7246 4.88281 12.8711L8.10547 15.9766C8.30078 16.1719 8.4668 16.2305 8.67188 16.2305C8.86719 16.2305 9.0332 16.1719 9.22852 15.9766L12.4512 12.8711C12.5977 12.7246 12.6855 12.5684 12.6855 12.3535C12.6855 11.9531 12.373 11.6699 11.9727 11.6699C11.7773 11.6699 11.582 11.748 11.4453 11.9043L9.93164 13.5156L9.38477 14.0918L9.44336 12.627L9.44336 2.69531C9.44336 2.28516 9.0918 1.94336 8.67188 1.94336Z" fill="black" fill-opacity="0.85"/>
 </g>
</svg>
