<?xml version="1.0" encoding="UTF-8"?>
<!--Generator: Apple Native CoreSVG 232.5-->
<!DOCTYPE svg
PUBLIC "-//W3C//DTD SVG 1.1//EN"
       "http://www.w3.org/Graphics/SVG/1.1/DTD/svg11.dtd">
<svg version="1.1" xmlns="http://www.w3.org/2000/svg" xmlns:xlink="http://www.w3.org/1999/xlink" width="18.9844" height="18.4668">
 <g>
  <rect height="18.4668" opacity="0" width="18.9844" x="0" y="0"/>
  <path d="M4.17969 18.4375L14.4434 18.4375C16.7578 18.4375 18.623 16.8164 18.623 14.4238C18.623 12.0312 16.7578 10.4102 14.4434 10.4102L4.17969 10.4102C1.86523 10.4102 0 12.0312 0 14.4238C0 16.8164 1.86523 18.4375 4.17969 18.4375ZM14.6973 16.9629C13.2812 16.9531 12.168 15.8203 12.168 14.4141C12.168 13.0176 13.291 11.8848 14.6973 11.8848C16.1035 11.8848 17.2461 13.0078 17.2363 14.4043C17.2266 15.8203 16.0938 16.9727 14.6973 16.9629Z" fill="#000000" fill-opacity="0.85"/>
  <path d="M4.58008 6.76758C5.86914 6.77734 6.89453 5.72266 6.9043 4.43359C6.91406 3.1543 5.86914 2.12891 4.58008 2.12891C3.29102 2.12891 2.26562 3.16406 2.26562 4.44336C2.26562 5.73242 3.29102 6.75781 4.58008 6.76758Z" fill="#000000" fill-opacity="0.85"/>
  <path d="M4.58008 8.90625L14.043 8.90625C16.5625 8.90625 18.623 7.10938 18.623 4.45312C18.623 1.79688 16.5625 0 14.043 0L4.58008 0C2.06055 0 0 1.79688 0 4.45312C0 7.10938 2.06055 8.90625 4.58008 8.90625ZM4.58008 7.43164C2.93945 7.43164 1.47461 6.23047 1.47461 4.45312C1.47461 2.67578 2.93945 1.47461 4.58008 1.47461L14.043 1.47461C15.6836 1.47461 17.1484 2.67578 17.1484 4.45312C17.1484 6.23047 15.6836 7.43164 14.043 7.43164Z" fill="#000000" fill-opacity="0.85"/>
 </g>
</svg>
