<?xml version="1.0" encoding="UTF-8"?>
<!--Generator: Apple Native CoreSVG 232.5-->
<!DOCTYPE svg
PUBLIC "-//W3C//DTD SVG 1.1//EN"
       "http://www.w3.org/Graphics/SVG/1.1/DTD/svg11.dtd">
<svg version="1.1" xmlns="http://www.w3.org/2000/svg" xmlns:xlink="http://www.w3.org/1999/xlink" width="19.2676" height="23.4863">
 <g>
  <rect height="23.4863" opacity="0" width="19.2676" x="0" y="0"/>
  <path d="M6.47461 18.7793C6.09375 18.7793 5.84961 18.5547 5.83008 18.1836L5.53711 7.43164C5.52734 7.07031 5.77148 6.83594 6.16211 6.83594C6.52344 6.83594 6.77734 7.06055 6.78711 7.42188L7.09961 18.1836C7.10938 18.5449 6.85547 18.7793 6.47461 18.7793ZM9.45312 18.7793C9.07227 18.7793 8.80859 18.5449 8.80859 18.1836L8.80859 7.43164C8.80859 7.07031 9.07227 6.83594 9.45312 6.83594C9.83398 6.83594 10.1074 7.07031 10.1074 7.43164L10.1074 18.1836C10.1074 18.5449 9.83398 18.7793 9.45312 18.7793ZM12.4414 18.7793C12.0605 18.7793 11.8066 18.5449 11.8164 18.1836L12.1191 7.43164C12.1289 7.06055 12.3828 6.83594 12.7441 6.83594C13.1348 6.83594 13.3789 7.07031 13.3691 7.43164L13.0762 18.1836C13.0566 18.5547 12.8125 18.7793 12.4414 18.7793ZM5.16602 4.46289L6.71875 4.46289L6.71875 2.37305C6.71875 1.81641 7.10938 1.45508 7.69531 1.45508L11.1914 1.45508C11.7773 1.45508 12.168 1.81641 12.168 2.37305L12.168 4.46289L13.7207 4.46289L13.7207 2.27539C13.7207 0.859375 12.8027 0 11.2988 0L7.58789 0C6.08398 0 5.16602 0.859375 5.16602 2.27539ZM0.732422 5.24414L18.1836 5.24414C18.584 5.24414 18.9062 4.90234 18.9062 4.50195C18.9062 4.10156 18.584 3.76953 18.1836 3.76953L0.732422 3.76953C0.341797 3.76953 0 4.10156 0 4.50195C0 4.91211 0.341797 5.24414 0.732422 5.24414ZM4.98047 21.748L13.9355 21.748C15.332 21.748 16.2695 20.8398 16.3379 19.4434L17.0215 5.03906L1.88477 5.03906L2.57812 19.4531C2.64648 20.8496 3.56445 21.748 4.98047 21.748Z" fill="#000000" fill-opacity="0.85"/>
 </g>
</svg>
