<?xml version="1.0" encoding="UTF-8"?>
<!--Generator: Apple Native CoreSVG 175.5-->
<!DOCTYPE svg
PUBLIC "-//W3C//DTD SVG 1.1//EN"
       "http://www.w3.org/Graphics/SVG/1.1/DTD/svg11.dtd">
<svg version="1.1" xmlns="http://www.w3.org/2000/svg" xmlns:xlink="http://www.w3.org/1999/xlink" width="24.9023" height="24.9146">
 <g>
  <rect height="24.9146" opacity="0" width="24.9023" x="0" y="0"/>
  <path d="M12.4512 24.9023C19.2627 24.9023 24.9023 19.2505 24.9023 12.4512C24.9023 5.63965 19.2505 0 12.439 0C5.63965 0 0 5.63965 0 12.4512C0 19.2505 5.65186 24.9023 12.4512 24.9023Z" fill="#000000" fill-opacity="0.85"/>
  <path d="M8.34961 17.5781C7.78809 17.5781 7.34863 17.1265 7.34863 16.5649C7.34863 16.2964 7.44629 16.04 7.6416 15.8569L11.0229 12.4634L7.6416 9.08203C7.44629 8.88672 7.34863 8.64258 7.34863 8.37402C7.34863 7.80029 7.78809 7.37305 8.34961 7.37305C8.63037 7.37305 8.8501 7.4707 9.04541 7.65381L12.4512 11.0474L15.8813 7.6416C16.0889 7.43408 16.3086 7.34863 16.5771 7.34863C17.1387 7.34863 17.5903 7.78809 17.5903 8.34961C17.5903 8.63037 17.5049 8.8501 17.2852 9.06982L13.8916 12.4634L17.2729 15.8447C17.4805 16.0278 17.5781 16.2842 17.5781 16.5649C17.5781 17.1265 17.1265 17.5781 16.5527 17.5781C16.272 17.5781 16.0156 17.4805 15.8325 17.2852L12.4512 13.8916L9.08203 17.2852C8.88672 17.4805 8.63037 17.5781 8.34961 17.5781Z" fill="#ffffff"/>
 </g>
</svg>
